<?xml version="1.0" encoding="utf-8"?>
<!-- Generator: Adobe Illustrator 26.0.2, SVG Export Plug-In . SVG Version: 6.00 Build 0)  -->
<svg version="1.1" id="Слой_1" xmlns="http://www.w3.org/2000/svg" xmlns:xlink="http://www.w3.org/1999/xlink" x="0px" y="0px"
	 viewBox="0 0 296.1 275" enable-background="new 0 0 296.1 275" xml:space="preserve">
<g id="Слой_6">
	<g>
		<path fill="#D9EFFD" d="M196.6,143.4c0.1-8.5,0.2-17,0.3-25.5c0.3-20.6,0.3-42.3-9.8-60.3c-2.8-5-6.3-9.6-11-12.8
			c-8.2-5.6-18.7-6.3-28.7-6.5c-8-0.1-16.2,0-23.7,2.7c-1.6,0.6-3.2,1.3-4.3,2.5c-1,1.1-1.5,2.6-2,4c-3.4,9.8-6.8,19.6-10.2,29.4
			c-1.4,4-2.8,8.1-3.4,12.3c-0.5,3.2-0.5,6.5-0.6,9.7c-0.2,14.6-0.4,29.1-0.6,43.7c-0.1,10.7-0.3,21.4-0.4,32
			c-0.1,7.1-0.2,14.2,0,21.3c0.6,17.3,3.1,34.5,7.5,51.3c1.9,7.4,4.9,15.5,11.7,18.9c3.1,1.5,6.6,1.9,10,2.2
			c8.6,0.8,17.3,1.5,25.8,0.4s17.1-4.3,23.2-10.3c5-4.9,8.2-11.5,10.4-18.2c5.2-15.6,5.7-32.3,5.8-48.7
			C196.6,175.5,197.3,159.4,196.6,143.4"/>
		<g>
			<path d="M199.1,143.4c0.1-10.1,0.3-20.3,0.4-30.4c0.1-9-0.1-18.1-1.2-27c-1.1-8.9-3.2-17.6-7.1-25.8c-3.7-7.9-9.2-15.5-17.2-19.5
				c-7.9-4-17-4.7-25.7-4.8c-4.7-0.1-9.5-0.1-14.2,0.4c-4.6,0.5-9.7,1.3-13.9,3.6c-4.3,2.4-5.3,7.6-6.8,11.9
				c-1.7,4.9-3.4,9.8-5.1,14.7c-1.7,4.8-3.4,9.5-4.9,14.3s-2.4,9.7-2.5,14.7c-0.3,10.3-0.3,20.6-0.4,30.9s-0.3,20.6-0.4,30.9
				c-0.3,20.3-1,40.6,1.6,60.8c1.3,10,3.2,19.9,5.7,29.7c1.9,7.3,4.8,15.3,11.5,19.6c4,2.5,8.8,2.9,13.3,3.4
				c5.1,0.5,10.2,0.9,15.4,0.9c9.2,0,18.5-1.4,26.6-5.7c16.9-9,21.7-29.8,23.8-47.3c1.1-9.7,1.2-19.5,1.3-29.2
				c0.1-10.3,0.4-20.7,0.3-31C199.4,153.5,199.3,148.4,199.1,143.4c-0.1-3.2-5.1-3.2-5,0c0.4,9.9,0.4,19.8,0.2,29.8
				c-0.1,9.7-0.1,19.5-0.4,29.2c-0.3,9.3-1,18.6-3,27.7c-1.8,8.2-4.4,16.7-9.6,23.5c-11.4,14.8-31.9,13.9-48.6,12.4
				c-4.1-0.4-8.5-0.6-12-3c-2.8-1.9-4.7-5-6-8.1c-1.6-3.4-2.5-7.1-3.4-10.8c-1.2-4.7-2.2-9.4-3.1-14.1c-1.7-9.4-2.9-18.9-3.4-28.4
				c-0.6-9.8-0.4-19.7-0.2-29.5c0.3-19.8,0.5-39.6,0.8-59.3c0.1-5,0.1-9.9,0.2-14.9c0.1-4.8,0.5-9.4,1.9-14s3.1-9.2,4.7-13.8
				c1.6-4.7,3.3-9.3,4.9-14c0.8-2.3,1.6-4.7,2.4-7c0.6-1.7,1.1-3.6,2.7-4.6c1.7-1.1,3.8-1.6,5.8-2.1c2.2-0.5,4.4-0.9,6.6-1.1
				c4.6-0.5,9.2-0.5,13.8-0.4c4.1,0.1,8.2,0.2,12.3,0.9c4,0.6,7.9,1.7,11.5,3.6c3.6,1.9,6.6,4.7,9.1,7.8c5.1,6.6,8.2,14.6,10.2,22.7
				c4.1,17.2,3.1,35.2,2.8,52.8c-0.1,4.9-0.1,9.8-0.2,14.7C194,146.6,199,146.6,199.1,143.4L199.1,143.4z"/>
		</g>
	</g>
	<g id="Слой_4__x28_копия_x29_">
		<path fill="#040507" d="M174.3,65.4c2.8,2.9,5.3,10.6-5.8,15.1c-9.5,3.8-25.2,4.6-36.4,3C121.5,82,116,69.1,121.5,63
			C125.7,58.3,162.9,53.9,174.3,65.4z"/>
		<path fill="#586973" d="M129.6,64.4c-3.1,2.1-3.9,10,2.4,13.7c5.9,3.6,31,4.6,37.5-5C177.6,60.9,136.5,59.8,129.6,64.4z"/>
		<path fill="#A0BCC8" d="M137.9,73.9c6.3,1,20,2.4,31.7-1.2c6.9-11.8-33.3-12.8-40.1-8.2c-0.4,0.3-0.8,0.7-1.2,1.2
			C129.6,69.7,132.8,73.1,137.9,73.9z"/>
		<path fill="#E3F3F7" d="M140,62.1c1.1,7.4,8.5,8.8,13.8,9c3,0.1,9.6,0.5,16.5-0.1C171.9,63.5,152.9,61.2,140,62.1z"/>
		<path fill="#040507" d="M174.3,94.1c2.8,2.9,5.3,10.6-5.8,15.1c-9.5,3.8-25.2,4.6-36.4,3c-10.6-1.5-16.1-14.4-10.6-20.5
			C125.7,87,162.9,82.5,174.3,94.1z"/>
		<path fill="#586973" d="M129.6,93.1c-3.1,2.1-3.9,10,2.4,13.7c5.9,3.6,31,4.6,37.5-5C177.6,89.6,136.5,88.4,129.6,93.1z"/>
		<path fill="#A0BCC8" d="M137.9,102.6c6.3,1,20,2.4,31.7-1.2c6.9-11.8-33.3-12.8-40.1-8.2c-0.4,0.3-0.8,0.7-1.2,1.2
			C129.6,98.3,132.8,101.7,137.9,102.6z"/>
		<path fill="#E3F3F7" d="M140,90.8c1.1,7.4,8.5,8.8,13.8,9c3,0.1,9.6,0.5,16.5-0.1C171.9,92.2,152.9,89.8,140,90.8z"/>
		<path fill="#040507" d="M174.3,120.3c2.8,2.9,5.3,10.6-5.8,15.1c-9.5,3.8-25.2,4.6-36.4,3c-10.6-1.5-16.1-14.4-10.6-20.5
			C125.7,113.2,162.9,108.7,174.3,120.3z"/>
		<path fill="#586973" d="M129.6,119.3c-3.1,2.1-3.9,10,2.4,13.7c5.9,3.6,31,4.6,37.5-5C177.6,115.8,136.5,114.7,129.6,119.3z"/>
		<path fill="#A0BCC8" d="M137.9,128.8c6.3,1,20,2.4,31.7-1.2c6.9-11.8-33.3-12.8-40.1-8.2c-0.4,0.3-0.8,0.7-1.2,1.2
			C129.6,124.6,132.8,127.9,137.9,128.8z"/>
		<path fill="#E3F3F7" d="M140,117c1.1,7.4,8.5,8.8,13.8,9c3,0.1,9.6,0.5,16.5-0.1C171.9,118.4,152.9,116,140,117z"/>
		<path fill="#040507" d="M174.3,148.5c2.8,2.9,5.3,10.6-5.8,15.1c-9.5,3.8-25.2,4.6-36.4,3c-10.6-1.5-16.1-14.4-10.6-20.5
			C125.7,141.4,162.9,136.9,174.3,148.5z"/>
		<path fill="#586973" d="M129.6,147.5c-3.1,2.1-3.9,10,2.4,13.7c5.9,3.6,31,4.6,37.5-5C177.6,144,136.5,142.9,129.6,147.5z"/>
		<path fill="#A0BCC8" d="M137.9,157c6.3,1,20,2.4,31.7-1.2c6.9-11.8-33.3-12.8-40.1-8.2c-0.4,0.3-0.8,0.7-1.2,1.2
			C129.6,152.8,132.8,156.1,137.9,157z"/>
		<path fill="#E3F3F7" d="M140,145.2c1.1,7.4,8.5,8.8,13.8,9c3,0.1,9.6,0.5,16.5-0.1C171.9,146.6,152.9,144.2,140,145.2z"/>
		<path fill="#040507" d="M174.3,176.7c2.8,2.9,5.3,10.6-5.8,15.1c-9.5,3.8-25.2,4.6-36.4,3c-10.6-1.5-16.1-14.4-10.6-20.5
			C125.7,169.6,162.9,165.1,174.3,176.7z"/>
		<path fill="#586973" d="M129.6,175.7c-3.1,2.1-3.9,10,2.4,13.7c5.9,3.6,31,4.6,37.5-5C177.6,172.2,136.5,171.1,129.6,175.7z"/>
		<path fill="#A0BCC8" d="M137.9,185.2c6.3,1,20,2.4,31.7-1.2c6.9-11.8-33.3-12.8-40.1-8.2c-0.4,0.3-0.8,0.7-1.2,1.2
			C129.6,181,132.8,184.4,137.9,185.2z"/>
		<path fill="#E3F3F7" d="M140,173.4c1.1,7.4,8.5,8.8,13.8,9c3,0.1,9.6,0.5,16.5-0.1C171.9,174.8,152.9,172.4,140,173.4z"/>
		<path fill="#040507" d="M174.3,202.9c2.8,2.9,5.3,10.6-5.8,15.1c-9.5,3.8-25.2,4.6-36.4,3c-10.6-1.5-16.1-14.4-10.6-20.5
			C125.7,195.8,162.9,191.3,174.3,202.9z"/>
		<path fill="#586973" d="M129.6,201.9c-3.1,2.1-3.9,10,2.4,13.7c5.9,3.6,31,4.6,37.5-5C177.6,198.4,136.5,197.3,129.6,201.9z"/>
		<path fill="#A0BCC8" d="M137.9,211.4c6.3,1,20,2.4,31.7-1.2c6.9-11.8-33.3-12.8-40.1-8.2c-0.4,0.3-0.8,0.7-1.2,1.2
			C129.6,207.2,132.8,210.6,137.9,211.4z"/>
		<path fill="#E3F3F7" d="M140,199.6c1.1,7.4,8.5,8.8,13.8,9c3,0.1,9.6,0.5,16.5-0.1C171.9,201,152.9,198.6,140,199.6z"/>
		<path fill="#040507" d="M174.3,240.9c2.8-2.9,5.3-10.6-5.8-15.1c-9.5-3.8-25.2-4.6-36.4-3c-10.6,1.5-16.1,14.4-10.6,20.5
			C125.7,248,162.9,252.4,174.3,240.9z"/>
		<path fill="#586973" d="M129.6,241.9c-3.1-2.1-3.9-10,2.4-13.7c5.9-3.6,31-4.6,37.5,5C177.6,245.4,136.5,246.5,129.6,241.9z"/>
		<path fill="#A0BCC8" d="M137.9,232.4c6.3-1,20-2.4,31.7,1.2c6.9,11.8-33.3,12.8-40.1,8.2c-0.4-0.3-0.8-0.7-1.2-1.2
			C129.6,236.6,132.8,233.2,137.9,232.4z"/>
		<path fill="#E3F3F7" d="M140,244.2c1.1-7.4,8.5-8.8,13.8-9c3-0.1,9.6-0.5,16.5,0.1C171.9,242.8,152.9,245.1,140,244.2z"/>
	</g>
</g>
</svg>
