<?xml version="1.0" encoding="utf-8"?>
<!-- Generator: Adobe Illustrator 26.0.2, SVG Export Plug-In . SVG Version: 6.00 Build 0)  -->
<svg version="1.1" id="Слой_1" xmlns="http://www.w3.org/2000/svg" xmlns:xlink="http://www.w3.org/1999/xlink" x="0px" y="0px"
	 viewBox="0 0 296.1 275" enable-background="new 0 0 296.1 275" xml:space="preserve">
<path fill="#D9EFFD" d="M156.4,223.6c26.4-0.7,52.8-0.2,79.2,1.4c3.8,0.2,7.8,0.5,11.2,2.3c3.4,1.7,6.2,5.3,5.9,9.1
	c-0.5,5.6-7,8.6-12.6,8.6s-11.1-2-16.7-1.3c-5.6,0.6-11,4.3-13,9.6c-2,5.3,0,12,5,14.8c2.8,1.5,6,1.8,9.2,1.9
	c17.9,0.7,36-1.3,53.3-6.1c5.4-1.5,11.5-4,12.8-9.5c0.8-3.2,0.5-7-1.5-9.8c-9.2-12.8-4.3-30.8-4.3-46.5
	c-0.2-33.9-2.9-67.8-8.2-101.2c-3.6-23.1-9.1-47.3-25.1-64.3c-11.9-12.7-28.5-20-45.5-23.6s-34.5-3.7-51.9-3.8
	c-5.2,0-10.3-0.1-15.5-0.1C128.1,5,116.5,5.2,108,11.7c-6.6,5-10.2,12.9-13.6,20.4c-5.4,12-10.7,24.1-16.1,36.1
	c-3.6,8-7.2,16.1-9.6,24.6c-2.5,8.9-3.8,18.1-5.1,27.2c-5.8,38.1-14.6,75.7-23.8,113.1c-0.5,2.1-1.1,4.2-2.5,5.8
	c-1.9,2.1-5,2.7-7.9,3.3c-6.1,1.2-12.2,3-18,5.3c-2.3,0.9-4.7,2-5.8,4.2c-1.1,2.1-0.7,4.8,0.4,7c3.6,6.8,12.4,8.4,20.1,9.2
	c9.7,1.1,19.5,2.1,29.2,0.7s19.3-5.6,25.3-13.3c5.7-7.2,7.5-16.7,8.5-25.8c0.2-1.6,0.4-3.2,1.4-4.4c1.4-1.6,3.9-1.7,6-1.7
	C118.1,223.6,134.7,223.3,156.4,223.6z"/>
<path d="M156.4,228.6c20.5-0.5,40.9-0.4,61.4,0.5c5.1,0.2,10.2,0.5,15.3,0.8c1.2,0.1,2.4,0.1,3.5,0.2c0.5,0,1,0.1,1.5,0.1
	c0.3,0,0.7,0.1,1,0.1s0.7,0.1,0.2,0c1.1,0.1,2.1,0.4,3.2,0.7c0.6,0.2,1.1,0.3,1.7,0.5c-0.7-0.3,0.5,0.3,0.7,0.4
	c0.4,0.2,0.8,0.5,1.2,0.8c-0.7-0.5,0,0.1,0.3,0.3c0.2,0.2,1,1.2,0.7,0.7s0,0.1,0.1,0.2c0.1,0.2,0.3,0.5,0.4,0.7
	c0.1,0.1,0.3,0.7,0.1,0.1c-0.2-0.6,0,0.2,0.1,0.4s0.1,0.4,0.1,0.6c0-0.1,0-0.9-0.1-0.3c0,0.2,0,0.4,0,0.6c0,1.2,0-0.3,0.1-0.2
	s-0.3,1-0.3,1.2c-0.1,0.6,0.1-0.5,0.2-0.4c0,0-0.3,0.5-0.3,0.6c-0.4,0.8,0.6-0.5,0,0.1c-0.3,0.3-0.7,0.6-0.9,0.9
	c-0.2,0.4,0.2-0.1,0.3-0.2c-0.2,0.1-0.4,0.3-0.6,0.4c-0.4,0.2-0.7,0.4-1.1,0.6c-0.2,0.1-1.2,0.5-0.6,0.3c0.7-0.2-0.6,0.2-0.8,0.3
	c-0.4,0.1-0.9,0.2-1.3,0.3c-0.2,0.1-0.5,0.1-0.7,0.1c-0.6,0.2,0.4,0,0.4,0c-0.3,0.1-0.8,0.1-1.1,0.1c-1.1,0-2.2,0-3.4-0.1
	c-0.3,0-0.7-0.1-1-0.1c0,0-0.9-0.1-0.4,0s-0.4-0.1-0.4-0.1c-0.3,0-0.5-0.1-0.8-0.1c-1.6-0.2-3.1-0.5-4.7-0.7
	c-4.9-0.6-9.6-0.2-14.1,1.8c-8.2,3.7-13.1,12.7-10.8,21.6c1.1,4.2,3.8,8,7.6,10.2c4.5,2.5,9.9,2.6,14.9,2.7
	c10.2,0.2,20.3-0.5,30.3-2c4.8-0.7,9.7-1.6,14.4-2.7c4.4-1,8.7-2.1,12.8-3.9c3.6-1.6,7.1-4.1,8.9-7.6c2.2-4.2,2.4-9.8,0.5-14.2
	c-0.8-2-2.1-3.6-3.1-5.5c-0.2-0.4-0.5-0.9-0.7-1.3c-0.1-0.2-0.2-0.4-0.3-0.6c0,0.1,0.3,0.7,0.1,0.2c-0.3-1-0.7-2-1-3
	c-0.2-0.8-0.4-1.7-0.6-2.5c-0.1-0.5-0.2-1-0.3-1.5c0-0.2-0.1-0.4-0.1-0.6c0.1,0.7,0,0.3,0-0.2c-0.2-2-0.3-4-0.3-6
	c0-8.2,1.2-16.3,1.3-24.5c0.1-20.2-1.1-40.5-3-60.6c-1.8-19.3-4.1-38.7-8-57.6c-3.5-16.7-9-33.3-19.6-46.9
	c-10.7-13.8-26.5-22.6-43.1-27.5c-18.7-5.5-38.5-6-57.9-6.2c-9.4-0.1-19-0.4-28.4,0c-8.7,0.4-17.7,2-24.8,7.4
	c-7,5-11.1,12.8-14.6,20.8c-4.1,9.2-8.2,18.4-12.3,27.7c-4.1,9.3-8.5,18.6-12,28.2c-3.3,9.2-5.1,18.8-6.5,28.5
	c-3,19.9-6.6,39.7-10.8,59.4s-8.9,39.2-13.7,58.7c-0.2,1-0.5,2-0.8,3c0,0.1-0.4,1-0.2,0.5s-0.1,0.2-0.1,0.2
	c-0.1,0.2-0.2,0.4-0.3,0.6c-0.3,0.5,0.6-0.5-0.2,0.2c-0.7,0.6,0.5-0.2-0.3,0.2c-0.3,0.2-1.1,0.5-0.3,0.2c-1,0.4-2.1,0.7-3.2,0.9
	c-4.6,1-9.2,2-13.7,3.5c-2.2,0.7-4.4,1.5-6.6,2.4c-2.3,1-4.6,2-6.4,3.9c-3.8,4.2-3.7,10.4-0.7,15c4.6,7.1,13,9.4,20.9,10.5
	c9.7,1.3,19.7,2.4,29.5,1.4c8.8-0.9,17.6-3.3,24.8-8.7c7.6-5.6,12.2-13.5,14.6-22.6c1.1-4.4,1.8-9,2.2-13.5
	c-0.1,1.1,0.1-0.3,0.1-0.6c0-0.1,0.2-0.5,0.2-0.6c0.1,0.2-0.4,0.7-0.5,0.8c0.6-0.8-0.5,0.4,0.2-0.2c-0.1,0.1-0.8,0.2-0.3,0.1
	c0.3,0,0.7-0.2,1-0.2c-0.9,0.2-0.1,0,0.3,0c0.5,0,1,0,1.5,0c1.3,0,2.6,0,3.9,0c9.3,0.1,18.7,0.1,28,0
	C137.9,228.5,147.1,228.5,156.4,228.6c2.6,0,5.1-2.3,5-5s-2.2-5-5-5c-18.5-0.2-36.9,0-55.4-0.1c-4.7,0-10.3-0.7-13.9,3
	c-2.1,2.1-2.6,4.8-2.9,7.6c-0.1,0.9-0.2,1.9-0.3,2.8c0,0-0.1,0.8,0,0.3c0.1-0.6-0.1,0.4-0.1,0.5c-0.1,0.6-0.2,1.1-0.3,1.7
	c-0.3,2-0.8,4.1-1.3,6.1c-0.3,1-0.6,2-0.9,3c-0.2,0.5-0.4,1-0.6,1.6c-0.1,0.2-0.2,0.4-0.3,0.7c-0.3,0.8,0.3-0.6,0,0.1
	c-0.9,1.9-1.9,3.8-3,5.6c-0.3,0.4-0.5,0.8-0.8,1.2c0.5-0.6-0.2,0.2-0.4,0.4c-0.7,0.8-1.4,1.5-2.2,2.3c-0.3,0.3-0.7,0.6-1,0.9
	c-0.2,0.2-0.5,0.4-0.7,0.6c0,0-0.6,0.5-0.2,0.2c0.3-0.3-0.6,0.4-0.8,0.5c-0.4,0.3-0.9,0.6-1.3,0.9c-0.8,0.5-1.7,1-2.5,1.5
	c-0.5,0.2-0.9,0.5-1.4,0.7c-0.2,0.1-0.4,0.2-0.6,0.3c-0.1,0-0.9,0.4-0.4,0.2c0.4-0.2-0.7,0.3-0.9,0.3c-0.5,0.2-1,0.4-1.5,0.5
	c-0.9,0.3-1.9,0.6-2.8,0.9c-2,0.5-4,0.9-6,1.2c0.6-0.1-0.7,0.1-0.9,0.1c-0.6,0.1-1.3,0.1-1.9,0.2c-1.2,0.1-2.4,0.2-3.6,0.2
	c-2.5,0.1-5,0-7.4-0.1c-4.8-0.2-9.6-0.8-14.4-1.3c-0.4,0-0.8-0.1-1.2-0.1c-0.2,0-1-0.1,0.1,0c-0.2,0-0.4-0.1-0.6-0.1
	c-0.9-0.1-1.7-0.3-2.6-0.4c-1.8-0.3-3.5-0.8-5.2-1.4c-0.2-0.1-1.3-0.5-0.7-0.2c0.6,0.2,0,0-0.1-0.1c-0.2-0.1-0.5-0.2-0.7-0.3
	c-0.7-0.4-1.4-0.9-2.1-1.3c-0.6-0.3,0.6,0.6,0.1,0.1c-0.1-0.1-0.3-0.2-0.4-0.4c-0.3-0.2-0.5-0.5-0.8-0.8s-0.5-0.6-0.7-0.8
	c0.8,0.9-0.1-0.3-0.3-0.6c-0.2-0.3-0.5-1.1-0.2-0.4c-0.1-0.2-0.1-0.4-0.2-0.7c0-0.1-0.3-1.1-0.1-0.5c0.1,0.5,0-0.7,0-0.9
	c0-0.6,0,0.2,0,0.2c0.5-0.2-0.2-0.6,0-0.1c-0.1-0.2,0.4-0.6-0.1,0c0.1-0.2,0.3-0.3,0.4-0.5c0.2-0.1,0.3-0.3,0.5-0.4
	c-0.1,0.1-0.6,0.4-0.1,0.2s0.9-0.5,1.3-0.7c0.2-0.1,0.4-0.2,0.6-0.3c0.7-0.3-0.7,0.2,0,0c4.5-1.6,8.9-3.2,13.5-4.3
	c4.2-1,9-1.3,12.6-3.8c4.5-3.1,5.5-8,6.7-13c2.4-9.6,4.7-19.2,6.9-28.8c4.5-19.2,8.7-38.5,12.2-57.9c1.8-9.7,3.3-19.3,4.8-29
	c1.4-9.5,3.2-18.9,6.4-28c1.7-4.7,3.2-8.3,5.1-12.5c2-4.5,4-9,6-13.5c4-9.1,8.1-18.2,12.1-27.2c1.6-3.7,3.3-7.3,5.4-10.8
	c0.5-0.8,1-1.5,1.5-2.3c0.3-0.4,0.6-0.9,0.9-1.3c-0.5,0.7,0.3-0.3,0.5-0.6c0.6-0.7,1.3-1.4,2-2.1c0.3-0.3,0.7-0.6,1-0.9
	c0.2-0.2,0.5-0.4,0.7-0.6c-0.4,0.3-0.3,0.2,0.1,0c1.6-1.1,3.3-2.1,5.1-2.9c-0.8,0.4,0.4-0.1,0.7-0.2c0.4-0.2,0.8-0.3,1.3-0.4
	c1-0.3,2-0.6,3.1-0.8c0.9-0.2,1.8-0.4,2.7-0.5c0.3,0,1.7-0.2,0.7-0.1c0.5-0.1,1.1-0.1,1.6-0.2c2.1-0.2,4.2-0.3,6.3-0.4
	c9.3-0.2,18.7,0,28,0.1c9.7,0.1,19.4,0.3,29.1,1.2c1.1,0.1,2.2,0.2,3.3,0.3c0.6,0.1,1.3,0.2,1.9,0.2c0.3,0,0.5,0.1,0.8,0.1
	c-0.5-0.1,0.1,0,0.3,0c2.4,0.4,4.9,0.8,7.3,1.2c4.1,0.8,8.2,1.8,12.3,3.1c1.9,0.6,3.9,1.3,5.7,2c0.9,0.4,1.9,0.7,2.8,1.1
	c0.5,0.2,0,0-0.1-0.1c0.2,0.1,0.4,0.2,0.6,0.3c0.6,0.2,1.1,0.5,1.7,0.8c3.7,1.7,7.3,3.7,10.8,6c0.8,0.5,1.5,1,2.3,1.6
	c0.4,0.3,0.9,0.6,1.3,1c0.2,0.1,0.4,0.3,0.6,0.4c-0.4-0.3-0.2-0.2,0.1,0.1c1.6,1.3,3.2,2.7,4.7,4.1c1.4,1.4,2.8,2.8,4.1,4.3
	c0.6,0.7,1.3,1.5,1.9,2.3c0.6,0.7-0.2-0.3,0.3,0.4c0.4,0.5,0.7,1,1.1,1.5c2.3,3.3,4.4,6.7,6.2,10.3c0.4,0.8,0.8,1.6,1.2,2.4
	c0.2,0.5,0.4,1,0.7,1.4c0.1,0.2,0.2,0.4,0.3,0.6c0,0.1,0.4,0.9,0.2,0.4c-0.2-0.4,0.3,0.7,0.4,0.9c0.2,0.5,0.4,1,0.6,1.5
	c0.4,1,0.8,2,1.1,3c2.7,7.7,4.7,15.7,6.2,23.7c0.8,4,1.5,8.1,2.1,12.1c0.4,2.4,0.7,4.8,1.1,7.2c0.2,1.2,0.3,2.4,0.5,3.6
	c0.1,0.6,0.2,1.1,0.2,1.7c0,0.3,0.1,0.6,0.1,0.8c0,0.1,0.2,1.2,0.1,0.6c2.6,19.7,4.4,39.5,5.3,59.3c0.4,9.6,0.9,19.4,0.6,29
	c-0.2,8-1.4,15.9-1.2,23.9c0.1,4.1,0.5,8.4,1.6,12.3c0.6,2.1,1.4,4.2,2.4,6.2c0.8,1.7,2,3.2,2.9,4.8c0.1,0.1,0.4,1,0.2,0.4
	c-0.2-0.5,0,0.2,0,0.2c0.1,0.4,0.2,0.9,0.3,1.3c-0.2-0.8,0,0,0,0.4c0,0.6,0,1.2,0,1.8c-0.1,1,0.2-0.5-0.1,0.4
	c-0.1,0.4-0.3,0.9-0.4,1.3c-0.1,0.5,0.1-0.2,0.2-0.3c-0.1,0.2-0.2,0.3-0.3,0.5c-0.3,0.4-0.8,1-0.1,0.3c-0.3,0.3-0.6,0.6-0.9,0.9
	c-0.1,0.1-1,0.9-0.5,0.5c0.5-0.4,0,0-0.1,0.1c-0.2,0.1-0.4,0.3-0.6,0.4c-0.4,0.2-0.8,0.5-1.2,0.7c-0.3,0.2-0.7,0.4-1.1,0.5
	c-0.2,0.1-0.4,0.2-0.5,0.2c0.9-0.5,0.3-0.1,0.1,0c-0.8,0.3-1.6,0.6-2.4,0.8c-4.3,1.4-8.8,2.3-13.3,3.2c-2.4,0.5-4.8,0.9-7.2,1.3
	c-2.6,0.4-3.7,0.6-6.2,0.8c-9.4,1.1-19.1,1.5-28.6,0.9c-0.6,0-1.2-0.1-1.7-0.2c0.8,0.1-0.4-0.1-0.6-0.1c-0.5-0.1-1-0.2-1.4-0.4
	c-0.3-0.1-0.6-0.2-0.9-0.3c0.5,0.2,0.1,0-0.1-0.1c-0.3-0.2-0.6-0.4-1-0.6c0.8,0.5,0.1,0-0.3-0.3c-0.1-0.1-0.9-1-0.5-0.5s0,0-0.1-0.1
	c-0.1-0.2-0.3-0.4-0.4-0.6c-0.1-0.2-0.2-0.4-0.4-0.7c-0.1-0.1-0.3-0.7-0.1-0.1c0.3,0.6-0.2-0.5-0.2-0.7c-0.1-0.4-0.2-0.7-0.3-1.1
	c0-0.2-0.2-1-0.1-0.3c0.1,0.7,0-0.2,0-0.3c0-0.4,0-0.8,0-1.2c0-0.4,0.2-1.6,0-0.4c0.1-0.4,0.1-0.8,0.2-1.1c0-0.2,0.1-0.4,0.2-0.6
	c0-0.1,0.3-0.9,0.1-0.3c-0.2,0.5,0.3-0.7,0.5-0.9c0.2-0.4,0.4-0.7,0.7-1c0.5-0.8-0.4,0.4,0.2-0.3c0.4-0.4,0.7-0.8,1.2-1.2
	c0.3-0.2,1-0.8,0.3-0.3c0.4-0.3,0.8-0.6,1.2-0.8s0.7-0.4,1.1-0.6c0.3-0.2,1.4-0.5,0.5-0.3c0.9-0.3,1.7-0.6,2.6-0.8
	c0.2,0,0.4-0.1,0.6-0.1c-0.1,0-0.9,0.1-0.2,0c0.7,0,1.4-0.1,2.1-0.1c1.1,0,2.3,0.1,3.4,0.2c0.2,0,1.5,0.2,0.8,0.1
	c0.6,0.1,1.2,0.2,1.8,0.3c4.6,0.7,9.2,1.4,13.8,0.2c4-1,7.7-3.3,10.1-6.7c2.7-3.9,2.6-8.9,0.5-13c-2.2-4.2-6.5-7-11-8.3
	c-4.7-1.3-9.8-1.3-14.6-1.6c-5-0.3-10-0.5-15-0.7c-10-0.4-20-0.6-30-0.7c-9.7-0.1-19.4,0-29.1,0.3c-2.6,0.1-5.1,2.3-5,5
	C151.5,226.2,153.6,228.6,156.4,228.6z"/>
<path fill="#040507" d="M198.6,29.7c3.5,3.5,6.5,12.9-7,18.4c-11.5,4.7-30.7,5.6-44.4,3.6c-12.9-1.9-19.6-17.5-12.9-25
	C139.4,21,184.7,15.6,198.6,29.7z"/>
<path fill="#586973" d="M144,28.5c-3.8,2.6-4.7,12.1,2.9,16.7c7.2,4.3,37.8,5.6,45.6-6.1C202.5,24.2,152.5,22.8,144,28.5z"/>
<path fill="#A0BCC8" d="M154.2,40c7.6,1.2,24.3,3,38.7-1.5c8.5-14.4-40.5-15.7-48.8-10c-0.5,0.4-1,0.9-1.4,1.5
	C144.1,34.9,147.9,39,154.2,40z"/>
<path fill="#E3F3F7" d="M156.8,25.6c1.4,9.1,10.3,10.7,16.8,11c3.6,0.2,11.7,0.6,20.2-0.2C195.7,27.4,172.5,24.5,156.8,25.6z"/>
</svg>
