<?xml version="1.0" encoding="utf-8"?>
<!-- Generator: Adobe Illustrator 26.0.2, SVG Export Plug-In . SVG Version: 6.00 Build 0)  -->
<svg version="1.1" id="Слой_1" xmlns="http://www.w3.org/2000/svg" xmlns:xlink="http://www.w3.org/1999/xlink" x="0px" y="0px"
	 viewBox="0 0 296.1 275" enable-background="new 0 0 296.1 275" xml:space="preserve">
<g id="Слой_7">
	<path fill="#040507" d="M108,43c-2.1,2.4-5.5,9.5-2,15.4c3.1,5,9.8,8,15.3,7.9c5.2,0,11.5-11.7,10.9-18.4
		C131.8,42.8,116.5,33.4,108,43z"/>
	<path fill="#586973" d="M128.2,48.2c0.8,2.5-1.3,10.2-5.2,12.9c-3.7,2.6-15.2,0.2-15.2-10C107.9,38.2,126.6,42.8,128.2,48.2z"/>
	<path fill="#A0BCC8" d="M121.7,56.2c-3.1,0.1-9.6-0.4-13.8-5.6c0.5-12.4,18.7-7.8,20.3-2.4c0.1,0.4,0.2,0.8,0.1,1.4
		C126.6,53.3,124.2,56.1,121.7,56.2z"/>
	<path fill="#E3F3F7" d="M124.3,44.5c-2.7,7-6.4,7.3-8.8,6.8c-1.4-0.3-4.4-0.8-7.3-2.4C109.6,41.5,118.8,41.8,124.3,44.5z"/>
	<path fill="#040507" d="M204.6,43c2.1,2.4,5.5,9.5,2,15.4c-3.1,5-9.8,8-15.3,7.9c-5.2,0-11.5-11.7-10.9-18.4
		C180.8,42.8,196.1,33.4,204.6,43z"/>
	<path fill="#586973" d="M184.4,48.2c-0.8,2.5,1.3,10.2,5.2,12.9c3.7,2.6,15.2,0.2,15.2-10C204.7,38.2,186.1,42.8,184.4,48.2z"/>
	<path fill="#A0BCC8" d="M191,56.2c3.1,0.1,9.6-0.4,13.8-5.6c-0.5-12.4-18.7-7.8-20.3-2.4c-0.1,0.4-0.2,0.8-0.1,1.4
		C186,53.3,188.4,56.1,191,56.2z"/>
	<path fill="#E3F3F7" d="M188.3,44.5c2.7,7,6.4,7.3,8.8,6.8c1.4-0.3,4.4-0.8,7.3-2.4C203,41.5,193.8,41.8,188.3,44.5z"/>
</g>
<path fill="#D9EFFD" d="M161.5,219.1c5.5-0.8,10.9,1.1,13.8,6.2c2.9,5.1,2.6,11.3,1.6,17.1c-0.3,1.5-0.6,3-1.4,4.3
	c-3.6,5.5-13.3,2.3-17.8,7.1c-3.1,3.2-2,9,1.2,12.1s7.9,4.2,12.4,4.6c8.3,0.8,16.8-0.3,24.7-3.1c2.7-1,5.4-2.2,7.6-4.1
	c4-3.7,5.4-9.4,5.5-14.8s-0.7-10.8-0.2-16.2c0.3-3.5,1.5-7.3,4.6-8.7c1.9-0.8,4-0.6,6-0.4c7.6,0.7,15.2,0.4,22.7-0.7
	c2.1-0.3,4.2-0.8,6-1.9c2.8-1.7,4.3-4.8,5.5-7.9c4.9-12.7,5.2-27.2,0.8-40.1c-1.1-3.1-3.2-6.6-6.5-6.5c-2.1,0.1-3.8,1.8-5,3.5
	c-2.6,3.7-4.1,8.1-4.3,12.6c-0.1,1.6,0,3.5-1.1,4.7c-0.9,1.1-2.3,1.5-3.7,1.8c-4.1,1.1-8.2,2.1-12.5,1.8s-8.5-2.2-10.6-5.9
	c-1.9-3.3-1.7-7.4-1.5-11.2c1.7-27.7,2.4-55.5-0.2-83.1c-0.9-9.8-2.3-19.7-6.4-28.6c-4.1-8.9-11.2-16.9-20.6-19.8
	c-4.5-1.4-9.3-1.6-14.1-1.9c-7-0.3-14-0.6-21-0.9c-10.7-0.5-23.2-0.1-29.4,8.7c-4,5.6-4.6,13.9-10.6,17.3c-3.1,1.7-6.9,1.6-10.4,2.2
	C91,68.4,86,71.6,80.4,72.8c-4.9,1-10,0.4-15,0.8C57.8,74,49.9,77.1,44.8,83c-5.1,6-6.7,15.1-2.8,21.9c4.5,7.9,14.5,10.5,23.4,11.9
	c9,1.4,18.8,2.8,24.9,9.6c6.4,7.2,6.3,17.9,5.9,27.5c-1.2,25-2.4,50-3.5,75c-0.1,3-0.8,6.8-3.7,7.7c-1.7,0.5-3.4-0.2-5.1-0.7
	c-6.9-2-16.2,1.1-17.2,8.3c-0.9,6.1,4.8,11.5,10.8,12.9c6,1.4,12.2,0.1,18.4-0.5c5-0.4,10.1-0.4,14.6-2.3c4.5-1.9,8.4-6.7,7.4-11.6
	c-0.5-2.6-2.3-4.7-3.2-7.2c-1.5-4.7,0.8-10.1,4.8-12.9c4-2.8,9.1-3.3,14.1-3.3c2,0,5.5-0.2,4.8,4.5c-0.4,2.3-1.8,4.3-4,5.2
	s-4.8,1.5-6.1,3.5c-1.5,2.1-0.8,5.3,1.1,7.1s4.5,2.6,7.1,2.8c5.6,0.4,11.4-1.8,14.9-6.1s4.4-10.8,1.8-15.7
	C155.8,220,158.7,219.6,161.5,219.1"/>
<path d="M162,220.9c3.3-0.5,7,0.3,9.5,2.6c3.1,2.8,4.1,7.1,4.2,11.1c0,2.2-0.1,4.3-0.5,6.4c-0.3,1.8-0.5,3.9-1.8,5.2
	c-1.9,2-5.4,2.1-8,2.5c-3.2,0.4-6.5,1.1-8.8,3.4c-2.7,2.6-3.2,6.7-2,10.1c2.9,8.5,13.1,10,20.9,10.2c4.8,0.1,9.6-0.4,14.3-1.5
	c4.4-1,9.1-2.3,12.9-4.8c7.6-5.1,8.6-14.6,8.2-23c-0.2-4.5-0.9-9.4,0.3-13.8c0.4-1.5,1.1-3,2.4-3.9c1.8-1.3,4.3-0.7,6.4-0.6
	c5,0.4,10,0.5,15,0.1c2.5-0.2,5-0.5,7.5-0.9c2.2-0.3,4.4-0.8,6.3-1.9c3.7-2.1,5.6-6.2,7.1-10c1.6-4.3,2.6-8.9,3.2-13.5
	c1.1-9.1,0.3-18.8-2.9-27.3c-1.3-3.4-3.6-7.2-7.6-7.4c-4.4-0.2-7.3,4.2-9,7.7c-1,2-1.7,4.1-2.1,6.2c-0.4,2.1-0.3,4.2-0.6,6.3
	c-0.4,2.2-2.6,2.4-4.4,2.9c-2.3,0.6-4.7,1.2-7.1,1.4c-3.9,0.4-8.2-0.2-11.2-3c-3.1-3-3-7.4-2.8-11.4c0.6-10.3,1.1-20.5,1.4-30.8
	c0.5-20.2,0.3-40.8-2.4-60.9c-1.2-9-3.2-18-7.9-25.9c-4-6.9-9.9-12.7-17.3-15.8c-4.2-1.8-8.8-2.3-13.4-2.6
	c-5.1-0.3-10.3-0.5-15.4-0.7c-8.2-0.4-16.7-1.2-24.8,0.4c-7.2,1.3-13.5,5-16.9,11.7c-1.6,3.1-2.6,6.5-4.3,9.6
	c-0.8,1.4-1.8,2.7-3.1,3.6c-1.6,1.2-3.7,1.6-5.6,1.9c-2.2,0.3-4.4,0.5-6.5,1c-2.2,0.5-4.3,1.4-6.4,2.3c-4.4,1.8-8.6,3.3-13.3,3.5
	c-4.7,0.2-9.4-0.1-14.1,0.7c-4,0.7-8,2.1-11.4,4.2C42.9,80.6,38.1,87.8,38,96c-0.2,8,4.6,14.5,11.5,18.1c6.9,3.5,14.6,4.2,22,5.6
	c7.5,1.4,15.5,3.9,19.5,11c3.9,6.9,3.5,15.5,3.2,23.1c-0.5,10.4-1,20.7-1.5,31.1c-0.5,10.3-1,20.5-1.5,30.8
	c-0.1,2.6-0.2,5.1-0.4,7.7c-0.1,2.3-0.1,4.8-0.4,7.1c-0.2,1.3-0.5,3-1.5,3.8c-1.5,1.2-3.8-0.1-5.4-0.4c-6.2-1.5-14.1,0.3-17.6,6
	c-4.2,7,1,14.9,7.6,17.8c4.3,1.9,9.1,2,13.8,1.6c2.5-0.2,4.9-0.6,7.3-0.8c2.3-0.2,4.7-0.3,7.1-0.6c4.4-0.4,8.9-1.2,12.5-4
	c3.1-2.3,5.5-6,5.5-10c-0.1-2.2-0.9-4.1-1.9-6c-0.9-1.7-1.8-3.4-1.9-5.4c-0.1-3.6,2-7.1,5-9c3.6-2.2,7.9-2.6,12-2.6
	c1.2,0,2.1-0.1,3,0.3c-0.1-0.1,0.1,0.1,0.1,0.1c0.2,0.2,0.2,0.1,0.3,0.4c0.2,0.5,0.1,1.3,0,1.8c-0.8,4.1-5.4,4-8.2,6.1
	c-3.4,2.5-3.5,7.2-1,10.4c2.6,3.3,7.1,4.3,11.1,4.1c4.1-0.2,8.1-1.5,11.3-4c6.2-4.8,8.6-13.6,4.9-20.6c-0.4,0.9-0.7,1.8-1.1,2.8
	C156.3,221.8,159.2,221.4,162,220.9c1-0.1,1.6-1.4,1.3-2.3c-0.3-1.1-1.3-1.5-2.3-1.3c-2.9,0.4-5.7,0.8-8.6,1.2
	c-1.3,0.2-1.6,1.8-1.1,2.8c3.6,7-0.7,15.2-7.7,17.9c-3.4,1.3-7.6,1.7-11,0.3c-3.2-1.4-5-5.5-1.3-7.5c1.6-0.9,3.5-1.2,5.1-2.2
	c1.5-1,2.7-2.5,3.3-4.3c1-2.9,0.6-6.7-2.7-7.9c-1.1-0.4-2.2-0.4-3.3-0.4c-1.9,0-3.9,0.1-5.8,0.3c-4.1,0.5-8.2,1.8-11.2,4.7
	c-2.7,2.6-4.5,6.3-4.4,10.1c0,2,0.6,3.9,1.4,5.6c0.9,1.8,2.2,3.6,2.3,5.6c0.3,3.5-2.4,6.6-5.3,8.3c-3.9,2.2-8.6,2.3-13,2.6
	c-8.1,0.6-18.5,3.7-25.5-2c-2.5-2-4.6-5.2-3.8-8.6c0.6-2.7,2.8-4.7,5.4-5.7c2.7-1.1,5.9-1.4,8.8-0.7c2.1,0.5,4.2,1.4,6.4,0.9
	c1.7-0.4,3-1.6,3.8-3.1c1.9-3.5,1.5-8.1,1.7-11.9c0.2-5.1,0.5-10.1,0.7-15.2c0.5-10,0.9-20,1.4-30.1c0.5-9.7,1.1-19.3,1.3-29
	c0.1-7.6-0.5-16.1-5.2-22.4c-4.8-6.4-12.3-9.1-19.9-10.6c-7.2-1.4-14.9-1.9-21.6-5.3c-3.1-1.5-5.8-3.6-7.7-6.6
	c-1.9-3.1-2.5-6.8-2-10.4C43,86.2,48.8,80.3,56,77.5c3.9-1.5,7.9-2.1,12-2.2c4.7-0.1,9.4,0.2,14-0.9c4.3-1.1,8.3-3.3,12.5-4.6
	c4.1-1.3,8.6-0.9,12.5-2.6c6.8-2.9,8-10.8,11.2-16.6c3.4-6.2,10.2-8.7,16.9-9.4c8.4-0.9,17.1,0,25.5,0.4c8.9,0.4,18.5-0.1,26.4,4.5
	c6.6,3.9,11.4,10.3,14.4,17.2c3.7,8.4,4.9,17.6,5.8,26.6c1,10,1.5,20.1,1.7,30.1c0.2,10.1,0.1,20.1-0.3,30.2
	c-0.2,5-0.4,9.9-0.7,14.9c-0.2,4.6-0.9,9.4-0.6,14c0.3,4.2,1.9,8,5.5,10.5c3.3,2.3,7.5,3.1,11.4,2.9c2.4-0.1,4.8-0.6,7.2-1.2
	c2-0.5,4.3-0.8,6.1-1.9c3.9-2.4,2.7-7.5,3.6-11.3c0.5-2,1.3-4,2.3-5.8c0.9-1.5,2-3.4,3.7-4.2c3.4-1.5,5.2,4.1,5.9,6.4
	c2.7,8.6,3.3,17.9,1.8,26.7c-0.7,4.3-1.9,8.7-3.8,12.7c-0.8,1.7-1.8,3.4-3.3,4.6c-1.6,1.3-3.7,1.7-5.7,2c-4.8,0.8-9.8,1.1-14.7,1.1
	c-2.4,0-4.9-0.1-7.3-0.3c-2.3-0.2-4.6-0.5-6.8,0.2c-8.5,2.9-6.5,15.5-6.2,22.2c0.2,4.3,0.1,8.5-1.3,12.6c-1.4,3.8-4.1,6.5-7.7,8.1
	c-8.3,3.8-18.2,4.9-27.2,4c-3.8-0.4-8-1.3-10.8-4.1c-2.1-2.1-3.3-5.9-1.6-8.6c1.5-2.4,4.9-2.8,7.4-3.2c2.9-0.4,6.1-0.7,8.7-2.4
	c3.5-2.3,4-6.4,4.5-10.2c0.5-4.1,0.5-8.5-0.9-12.5c-1.2-3.6-3.5-6.7-6.9-8.5c-3.2-1.7-6.8-2.1-10.4-1.6c-1,0.1-1.6,1.4-1.3,2.3
	C160,220.7,161,221.1,162,220.9L162,220.9z"/>
<g id="Слой_4__x28_копия_x29_">
	<path fill="#040507" d="M153.7,56.4c1.7,3.3,3.2,12.1-3.5,17.3c-5.7,4.4-15.1,5.3-21.9,3.4c-6.4-1.8-9.6-16.5-6.4-23.4
		C124.5,48.3,146.9,43.2,153.7,56.4z"/>
	<path fill="#586973" d="M126.8,55.3c-1.9,2.4-2.3,11.4,1.4,15.7c3.5,4.1,18.6,5.3,22.5-5.7C155.6,51.3,131,50,126.8,55.3z"/>
	<path fill="#A0BCC8" d="M131.8,66.1c3.8,1.2,12,2.8,19.1-1.4c4.2-13.5-20-14.7-24.1-9.4c-0.3,0.3-0.5,0.8-0.7,1.4
		C126.9,61.3,128.7,65.2,131.8,66.1z"/>
	<path fill="#E3F3F7" d="M133.1,52.6c0.7,8.5,5.1,10,8.3,10.3c1.8,0.2,5.8,0.6,9.9-0.2C152.3,54.3,140.8,51.5,133.1,52.6z"/>
	<path fill="#040507" d="M189.9,56.6c1.7,3.3,3.2,12.1-3.5,17.3c-5.7,4.4-15.1,5.3-21.9,3.4c-6.4-1.8-9.6-16.5-6.4-23.4
		C160.7,48.5,183.1,43.4,189.9,56.6z"/>
	<path fill="#586973" d="M163,55.5c-1.9,2.4-2.3,11.4,1.4,15.7c3.5,4.1,18.6,5.3,22.5-5.7C191.8,51.4,167.2,50.2,163,55.5z"/>
	<path fill="#A0BCC8" d="M168,66.3c3.8,1.2,12,2.8,19.1-1.4c4.2-13.5-20-14.7-24.1-9.4c-0.3,0.3-0.5,0.8-0.7,1.4
		C163.1,61.5,164.9,65.3,168,66.3z"/>
	<path fill="#E3F3F7" d="M169.3,52.8c0.7,8.5,5.1,10,8.3,10.3c1.8,0.2,5.8,0.6,9.9-0.2C188.5,54.4,177,51.7,169.3,52.8z"/>
	<path fill="#040507" d="M151.7,87.8c1.3,2.6,2.5,9.5-2.7,13.6c-4.4,3.4-11.7,4.2-17,2.7c-4.9-1.4-7.5-12.9-4.9-18.4
		C129,81.4,146.4,77.4,151.7,87.8z"/>
	<path fill="#586973" d="M130.8,87c-1.4,1.9-1.8,9,1.1,12.3c2.8,3.2,14.4,4.2,17.5-4.5C153.2,83.8,134,82.8,130.8,87z"/>
	<path fill="#A0BCC8" d="M134.7,95.5c2.9,0.9,9.3,2.2,14.8-1.1c3.2-10.6-15.5-11.5-18.7-7.4c-0.2,0.3-0.4,0.7-0.5,1.1
		C130.9,91.7,132.3,94.7,134.7,95.5z"/>
	<path fill="#E3F3F7" d="M135.7,84.9c0.5,6.7,4,7.9,6.4,8.1c1.4,0.1,4.5,0.5,7.7-0.1C150.6,86.1,141.7,84,135.7,84.9z"/>
	<path fill="#040507" d="M180.4,86.7c1.3,2.6,2.5,9.5-2.7,13.6c-4.4,3.4-11.7,4.2-17,2.7c-4.9-1.4-7.5-12.9-4.9-18.4
		C157.8,80.3,175.1,76.3,180.4,86.7z"/>
	<path fill="#586973" d="M159.5,85.8c-1.4,1.9-1.8,9,1.1,12.3c2.8,3.2,14.4,4.2,17.5-4.5C181.9,82.7,162.8,81.6,159.5,85.8z"/>
	<path fill="#A0BCC8" d="M163.4,94.3c2.9,0.9,9.3,2.2,14.8-1.1c3.2-10.6-15.5-11.5-18.7-7.4c-0.2,0.3-0.4,0.7-0.5,1.1
		C159.6,90.6,161,93.6,163.4,94.3z"/>
	<path fill="#E3F3F7" d="M164.4,83.7c0.5,6.7,4,7.9,6.4,8.1c1.4,0.1,4.5,0.5,7.7-0.1C179.3,85,170.4,82.9,164.4,83.7z"/>
	<path fill="#040507" d="M125.5,99.6c0.7,1.7,1.2,6.1-1.3,8.7c-2.2,2.2-5.9,2.7-8.5,1.7c-2.5-0.9-3.7-8.3-2.5-11.9
		C114.2,95.5,122.9,92.9,125.5,99.6z"/>
	<path fill="#586973" d="M115.1,99.1c-0.7,1.2-0.9,5.8,0.5,7.9s7.2,2.7,8.7-2.9C126.3,97,116.7,96.4,115.1,99.1z"/>
	<path fill="#A0BCC8" d="M117.1,104.5c1.5,0.6,4.7,1.4,7.4-0.7c1.6-6.8-7.7-7.4-9.3-4.8c-0.1,0.2-0.2,0.4-0.3,0.7
		C115.1,102.1,115.9,104.1,117.1,104.5z"/>
	<path fill="#E3F3F7" d="M117.5,97.7c0.3,4.3,2,5.1,3.2,5.2c0.7,0.1,2.2,0.3,3.9-0.1C125,98.5,120.5,97.2,117.5,97.7z"/>
	<path fill="#040507" d="M193.7,97c0.7,1.7,1.2,6.1-1.3,8.7c-2.2,2.2-5.9,2.7-8.5,1.7c-2.5-0.9-3.7-8.3-2.5-11.9
		C182.4,92.9,191,90.3,193.7,97z"/>
	<path fill="#586973" d="M183.3,96.4c-0.7,1.2-0.9,5.8,0.5,7.9s7.2,2.7,8.7-2.9C194.4,94.4,184.9,93.7,183.3,96.4z"/>
	<path fill="#A0BCC8" d="M185.2,101.9c1.5,0.6,4.7,1.4,7.4-0.7c1.6-6.8-7.7-7.4-9.3-4.8c-0.1,0.2-0.2,0.4-0.3,0.7
		C183.3,99.5,184,101.4,185.2,101.9z"/>
	<path fill="#E3F3F7" d="M185.7,95.1c0.3,4.3,2,5.1,3.2,5.2c0.7,0.1,2.2,0.3,3.9-0.1C193.1,95.9,188.7,94.5,185.7,95.1z"/>
	<path fill="#040507" d="M242,202.2c1.8,1.6,3.4,5.8-3.7,8.3c-6,2.1-16,2.6-23.1,1.7c-6.7-0.9-10.2-7.9-6.7-11.3
		C211.1,198.3,234.8,195.8,242,202.2z"/>
	<path fill="#586973" d="M213.6,201.6c-2,1.2-2.4,5.5,1.5,7.6c3.7,2,19.7,2.6,23.8-2.8C244,199.7,217.9,199.1,213.6,201.6z"/>
	<path fill="#A0BCC8" d="M218.9,206.9c4,0.6,12.7,1.3,20.1-0.7c4.4-6.5-21.1-7.1-25.4-4.5c-0.3,0.2-0.5,0.4-0.7,0.7
		C213.6,204.5,215.6,206.4,218.9,206.9z"/>
	<path fill="#E3F3F7" d="M220.2,200.4c0.7,4.1,5.4,4.8,8.8,5c1.9,0.1,6.1,0.3,10.5-0.1C240.5,201.1,228.4,199.8,220.2,200.4z"/>
	<path fill="#040507" d="M166.4,254.7c0.9-0.5,3.3-1,4.7,1.1c1.2,1.8,1.4,4.9,0.9,7c-0.5,2-4.4,3.1-6.3,2
		C164.2,264.1,162.8,256.9,166.4,254.7z"/>
	<path fill="#586973" d="M166.1,263.3c0.6,0.6,3.1,0.7,4.2-0.5c1.1-1.1,1.4-6-1.5-7.2C165,254.1,164.7,262,166.1,263.3z"/>
	<path fill="#A0BCC8" d="M169,261.7c0.3-1.2,0.8-3.8-0.4-6.1c-3.6-1.3-4,6.4-2.5,7.7c0.1,0.1,0.2,0.2,0.4,0.2
		C167.7,263.3,168.8,262.7,169,261.7z"/>
	<path fill="#E3F3F7" d="M165.4,261.3c2.3-0.2,2.7-1.6,2.8-2.7c0-0.6,0.2-1.9,0-3.2C165.8,255.2,165.1,258.8,165.4,261.3z"/>
	<path fill="#040507" d="M76.1,241.2c0.9-0.5,3.3-1,4.7,1.1c1.2,1.8,1.4,4.9,0.9,7c-0.5,2-4.4,3.1-6.3,2
		C73.9,250.6,72.5,243.4,76.1,241.2z"/>
	<path fill="#586973" d="M75.8,249.8c0.6,0.6,3.1,0.7,4.2-0.5c1.1-1.1,1.4-6-1.5-7.2C74.7,240.6,74.3,248.5,75.8,249.8z"/>
	<path fill="#A0BCC8" d="M78.7,248.2c0.3-1.2,0.8-3.8-0.4-6.1c-3.6-1.3-4,6.4-2.5,7.7c0.1,0.1,0.2,0.2,0.4,0.2
		C77.4,249.8,78.4,249.2,78.7,248.2z"/>
	<path fill="#E3F3F7" d="M75.1,247.8c2.3-0.2,2.7-1.6,2.8-2.7c0-0.6,0.2-1.9,0-3.2C75.5,241.7,74.8,245.3,75.1,247.8z"/>
	<path fill="#040507" d="M59.5,81.6c2.3-1.5,8.6-2.8,12.2,3.1c3.1,5.1,3.7,13.5,2.4,19.5c-1.3,5.7-11.6,8.6-16.6,5.7
		C53.8,107.7,50.2,87.7,59.5,81.6z"/>
	<path fill="#586973" d="M58.8,105.6c1.7,1.7,8,2.1,11.1-1.3c2.9-3.2,3.7-16.6-4.1-20.1C55.9,79.9,55,101.9,58.8,105.6z"/>
	<path fill="#A0BCC8" d="M66.4,101.1c0.8-3.4,2-10.7-1-17c-9.5-3.7-10.4,17.8-6.7,21.5c0.2,0.2,0.6,0.4,1,0.6
		C63,105.6,65.7,103.9,66.4,101.1z"/>
	<path fill="#E3F3F7" d="M56.9,100c6-0.6,7.1-4.6,7.3-7.4c0.1-1.6,0.4-5.2-0.1-8.9C58,82.9,56.1,93.1,56.9,100z"/>
	<path fill="#040507" d="M134.3,231.8c0.6-0.4,2.3-0.7,3.3,0.8c0.9,1.3,1,3.5,0.7,5s-3.2,2.2-4.5,1.5
		C132.7,238.5,131.7,233.4,134.3,231.8z"/>
	<path fill="#586973" d="M134.1,238c0.5,0.4,2.2,0.5,3-0.3s1-4.3-1.1-5.2C133.3,231.4,133,237.1,134.1,238z"/>
	<path fill="#A0BCC8" d="M136.2,236.9c0.2-0.9,0.5-2.8-0.3-4.4c-2.6-1-2.8,4.6-1.8,5.5c0.1,0.1,0.2,0.1,0.3,0.2
		C135.2,238,136,237.6,136.2,236.9z"/>
	<path fill="#E3F3F7" d="M133.5,236.6c1.6-0.2,1.9-1.2,2-1.9c0-0.4,0.1-1.3,0-2.3C133.9,232.2,133.3,234.8,133.5,236.6z"/>
</g>
</svg>
