<?xml version="1.0" encoding="utf-8"?>
<!-- Generator: Adobe Illustrator 26.0.2, SVG Export Plug-In . SVG Version: 6.00 Build 0)  -->
<svg version="1.1" id="Слой_1" xmlns="http://www.w3.org/2000/svg" xmlns:xlink="http://www.w3.org/1999/xlink" x="0px" y="0px"
	 viewBox="0 0 296.1 275" enable-background="new 0 0 296.1 275" xml:space="preserve">
<path fill="#D9EFFD" d="M148.3,186.2c-8.4,3.5-18.6,8.3-24.2,15.4c-7.1,9.2-7.4,21.8-7.3,33.5c0,4.5,0,8.9,0.1,13.4
	c0,2.9,0.1,6.1,1.8,8.5c1.3,1.9,3.5,2.9,5.6,3.9c6.3,3.1,12.5,6.1,19.1,8.4c1.3,0.4,2.6,0.9,3.9,0.9c1.1,0,2.1-0.1,3.2-0.4
	c8-1.6,15.8-4.7,22.8-9.1c1.2-0.8,2.5-1.6,3.4-2.7c3.3-3.5,3.3-8.9,3.4-13.7c0.1-7.9,0.9-15.8,0.1-23.6c-0.8-7.8-3.4-15.8-9-21.4
	c-3.9-3.9-8.9-6.3-13.9-8.7C154.3,189.1,151.3,187.6,148.3,186.2"/>
<path d="M147.6,183.8c-6.8,2.8-13.6,5.9-19.5,10.4c-6.1,4.7-10,11-11.9,18.4c-2,7.6-2,15.6-1.9,23.4c0,4.5,0,9.1,0.1,13.6
	c0.1,4.1,1,8.2,4.4,10.8c3.2,2.5,7.2,4,10.9,5.7c4.1,1.9,8.3,3.8,12.6,5.3c2.1,0.7,4.2,1.3,6.4,1.1c2.2-0.2,4.5-0.8,6.6-1.4
	c4.1-1.1,8.1-2.6,11.9-4.4c3.7-1.7,8-3.8,10.9-6.7c2.8-2.8,3.8-6.6,4.2-10.4c0.4-4.2,0.3-8.4,0.5-12.6c0.2-4.7,0.4-9.4,0.1-14
	c-0.5-7.8-2.3-15.9-7-22.2c-5-6.8-12.5-10.2-19.9-13.8c-2.1-1-4.2-2-6.3-3c-1.2-0.6-2.7-0.3-3.4,0.9c-0.6,1.1-0.3,2.8,0.9,3.4
	c3.8,1.8,7.7,3.7,11.5,5.5c3.2,1.6,6.4,3.3,9.2,5.6c5.4,4.5,8.2,11.1,9.5,17.9c1.5,8.1,0.7,16.5,0.4,24.8c-0.1,3.4,0.1,6.9-0.8,10.2
	c-0.4,1.5-1,2.9-2,4c-1.2,1.4-2.9,2.3-4.5,3.2c-6.5,3.9-14.1,7-21.7,8.1c-1.9,0.3-3.6-0.3-5.4-1c-1.9-0.7-3.7-1.4-5.6-2.2
	c-3.9-1.6-7.6-3.5-11.4-5.3c-1.5-0.7-3.2-1.4-4.5-2.5c-1.2-0.9-1.8-2.2-2.1-3.6c-0.4-1.7-0.3-3.5-0.3-5.3c0-2.1,0-4.3,0-6.4
	c0-7.4-0.4-14.9,0.7-22.2c1-6.6,3.1-13.2,7.9-18c4.7-4.8,10.9-7.9,16.9-10.6c1.4-0.6,2.8-1.2,4.2-1.8c1.2-0.5,2.1-1.7,1.7-3.1
	C150.4,184.4,148.9,183.3,147.6,183.8L147.6,183.8z"/>
<path fill="#F5FAFE" d="M148.2,207.5c-5.2,3-7.3,9.4-8.2,15.4c-1.2,7.8-1,15.7,0.4,23.4c0.5,2.5,1.2,5.2,3.1,6.8
	c2.8,2.3,7.4,1.4,9.9-1.3c2.6-2.6,3.5-6.4,3.9-10.1c0.3-3.1,0.2-6.3,0.1-9.4c-0.1-4.6-0.3-9.2-1.5-13.5c-1.2-4.4-3.5-8.6-7.1-11.3"
	/>
<path fill="#9FBCC8" d="M139.3,237.2c0.2,3,0.5,6.1,1.1,9.1c0.5,2.5,1.2,5.2,3.1,6.8c2.8,2.3,7.4,1.4,9.9-1.3s3.5-6.4,3.9-10.1
	c0.2-1.7,0.2-3.3,0.2-5C152.5,234.8,144.9,235.1,139.3,237.2z"/>
<path d="M147,205.4c-6.2,3.7-8.6,11-9.5,17.8c-0.6,4.4-0.9,8.9-0.7,13.4c0.2,4.2,0.6,8.6,1.7,12.7c1,3.6,3.4,6.9,7.3,7.5
	c3.6,0.6,7.3-0.7,9.8-3.4c5.6-6.2,4.7-16.1,4.4-23.8c-0.4-9-2.1-18.4-9.8-24.2c-1.1-0.8-2.8-0.2-3.4,0.9c-0.7,1.3-0.2,2.6,0.9,3.4
	c5.1,3.9,6.7,10.8,7.1,16.8c0.3,3.8,0.4,7.6,0.3,11.4c0,3.2-0.2,6.6-1.5,9.6c-1,2.2-2.7,4.1-5.2,4.5c-2.8,0.4-4.3-1.5-5-3.9
	c-0.9-3.3-1.3-6.8-1.5-10.2c-0.2-3.8-0.2-7.7,0.2-11.5c0.6-5.9,1.9-13.3,7.4-16.6C152.2,208,149.7,203.7,147,205.4L147,205.4z"/>
</svg>
