<?xml version="1.0" encoding="utf-8"?>
<!-- Generator: Adobe Illustrator 26.0.2, SVG Export Plug-In . SVG Version: 6.00 Build 0)  -->
<svg version="1.1" id="Слой_1" xmlns="http://www.w3.org/2000/svg" xmlns:xlink="http://www.w3.org/1999/xlink" x="0px" y="0px"
	 viewBox="0 0 296.1 275" enable-background="new 0 0 296.1 275" xml:space="preserve">
<path fill="#D9EFFD" d="M219.1,157.4c-0.6-13.1-4.5-26-4.5-39.2c0-6.8,1-13.6,0-20.3c-1-6.7-1.9-11-4.8-17.1
	c-3.5-7.4-9.3-17.1-16-21.8c-6.8-4.7-15.5-5.6-23.8-5.9c-5.5-0.2-10.9-0.3-16.4-0.2c-6,0.1-11.6-0.3-16.1,3.8
	c-3.2,2.8-5.8,7.8-7.2,11.8c-8.7,24.7-14,50.7-15.5,76.9c-0.9,14.6-0.6,29.4-2.8,43.9c-0.8,5.3-2,10.6-3.2,15.9c-2,9-4,17.9-6,26.9
	c-5.7-2.7-12.3-4.5-18.4-2.8s-11.3,7.9-9.9,14.1c1.5,6.7,9.3,9.8,16.1,10.9c12.4,1.9,25.4,0.3,37-4.6c4.9-2,10-5.3,11-10.5
	c1.4-7.8-7.5-16.1-3.2-22.8c2.4-3.8,7.6-4.3,12-4.5c5.9-0.2,11.8-0.4,17.7-0.6c3.4-0.1,7.2-0.1,9.7,2.2c2.8,2.5,2.9,6.7,2.9,10.4
	c0,3,0,5.9,0,8.9c0,2.5-1,4.8-1.1,7.3c-0.5,9.4-10,5.9-15.5,7.1s-11,4.7-11.5,10.4c-0.3,3.7,2.4,7.1,5.6,8.8s7,2.1,10.7,2.5
	c15.5,1.4,32.1,2.1,45.4-5.9c1.7-1,3.4-2.3,4.4-4c1.3-2.2,1.3-4.8,1.3-7.3c0-12,0.1-24,0.1-36l0,0
	C216,197.2,219.9,176.8,219.1,157.4z M179.9,186.1c-0.2,0.5-0.8,0.9-1.3,1.2c-0.5,0.4-1.4,0.6-2.1,0.6c-9.3,0-17.3,0-26.6-1
	c-3.9-0.2-5.1,0.1-7.5-0.5s-4.8-2-6-4.2c-0.9-1.6-1.1-3.6-1.1-5.5c0-1.4,0.1-2.9,0.7-4.2c1.6-3.7,6.2-5,10.2-5.6
	c7.7-1.2,15.6-1.5,23.4-1c1.5,0.1,2.9,0.3,4.3,0.8c2,0.8,3.5,2.4,4.8,4.1c1.9,2.5,2.8,5.5,2.7,8.7
	C181.1,181.8,180.8,184,179.9,186.1z"/>
<path d="M221.6,157.4c-0.6-11.9-3.8-23.5-4.4-35.4c-0.3-6.1,0.4-12.2,0.3-18.3c-0.1-5.3-0.9-10.8-2.4-15.9
	c-1.4-4.8-3.6-9.4-6.1-13.8c-2.4-4.4-5.2-8.6-8.6-12.3c-3.5-3.8-7.7-6.7-12.6-8.4c-4.9-1.7-10.2-2.3-15.4-2.6
	c-6.1-0.4-12.2-0.4-18.4-0.4c-4.9,0.1-10-0.1-14.6,2c-4.7,2.2-7.8,6.8-9.9,11.3c-2.4,5.1-4,10.7-5.6,16c-6.9,23-10.9,46.6-11.9,70.4
	c-0.5,12.1-0.5,24.3-2.2,36.4c-0.8,6.1-2.2,12.1-3.5,18.1s-2.7,12-4,18c-0.7,3-1.3,5.9-2,8.9c1.2-0.5,2.4-1,3.7-1.5
	c-7-3.2-15.2-5.5-22.6-2.3c-6.1,2.7-10.8,9.3-9.4,16.2c1.3,6.3,7.3,10,13,11.7c7.1,2.1,15,2.3,22.3,1.6c7.8-0.7,15.6-2.6,22.8-5.9
	c5.9-2.7,11.6-7.7,11-14.8c-0.3-3.1-1.4-5.9-2.5-8.8c-1-2.5-2.1-5.1-2-7.7c0.1-0.8,0.4-1.9,1.1-2.7c0.8-1,1.9-1.5,3.1-1.9
	c3.2-1,6.6-0.9,9.9-1c4.3-0.1,8.5-0.3,12.8-0.4c2.9-0.1,6.9-0.7,9.4,1.3c2.2,1.7,2.2,5.1,2.3,7.6c0,2,0,4,0,6s0.1,4.1-0.2,6
	c-0.4,2-0.7,4-0.9,5.9c-0.1,0.4-0.2,1-0.4,1.5c0,0.1,0,0-0.2,0.3c-0.1,0.1-0.1,0.2-0.2,0.3c-0.3,0.6,0.2-0.2-0.1,0.1
	c-0.1,0.2-0.3,0.3-0.5,0.5s0.1,0,0.1-0.1c-0.1,0.1-0.2,0.1-0.3,0.2c-0.2,0.1-0.4,0.2-0.6,0.3c-0.3,0.2,0.4-0.1,0,0
	c-0.1,0-0.3,0.1-0.4,0.1c-0.4,0.1-0.9,0.2-1.3,0.3c-0.3,0,0,0,0.1,0c-0.2,0-0.3,0-0.5,0c-0.3,0-0.6,0-0.8,0.1
	c-2.1,0.1-4.3-0.1-6.4,0.1c-2.9,0.2-5.8,1.2-8.4,2.6c-2.9,1.6-5.3,4.1-6.5,7.2c-1.2,3.2-0.8,6.9,1.1,9.7c4.5,6.7,13,7.1,20.3,7.7
	c14.5,1.2,30.2,1.2,43.1-6.5c3.3-2,6.1-4.6,6.8-8.5c0.8-4.1,0.4-8.4,0.4-12.5c0-8.7,0.1-17.3,0.1-26c0-4-0.2-8-0.2-12
	c0.1-4,0.3-8.1,0.5-12.1c0.5-8.3,1.3-16.5,1.6-24.8C221.7,165.4,221.7,161.4,221.6,157.4c-0.1-3.2-5.1-3.2-5,0
	c0.7,15.8-1.7,31.4-2.1,47.2c-0.1,3.8,0.1,7.6,0.2,11.4c0.1,4.2,0,8.5,0,12.7c0,8.2,0.2,16.5-0.1,24.7c-0.1,1.6-0.2,3.2-1.1,4.5
	c-0.8,1.3-2.1,2.2-3.4,2.9c-3,1.8-6.1,3.1-9.4,4.1c-6.6,2-13.6,2.4-20.5,2.3c-3.5-0.1-7.1-0.3-10.6-0.6c-3.6-0.3-7.3-0.4-10.8-1.5
	c-2.7-0.8-5.4-2.6-6.3-5.4c-0.8-2.4,0.3-4.9,2-6.6c2-1.9,4.7-3,7.4-3.6c0.1,0,0.7-0.1,0.4-0.1s0.3,0,0.5,0c0.5,0,1-0.1,1.5-0.1
	c1,0,2.1,0,3.1,0c4.6,0,9.4-0.9,11.2-5.8c0.5-1.4,0.5-2.9,0.7-4.4c0.3-2,0.9-3.9,1-5.9c0.2-3.8,0.2-7.8,0-11.6
	c-0.1-3.3-0.7-6.6-2.9-9.2c-2.2-2.7-5.8-3.6-9.1-3.7c-3.9-0.2-7.8,0.2-11.7,0.3c-3.8,0.1-7.6,0.1-11.4,0.4c-3,0.2-6.3,0.7-8.8,2.5
	c-2.7,1.8-4.3,4.6-4.6,7.8c-0.5,5.7,3.6,10.6,4.4,16.2c0.9,5.9-4.6,9.4-9.4,11.4c-6.9,2.9-14.4,4.6-21.8,5
	c-6.7,0.4-13.9,0.2-20.3-2.2c-4.5-1.7-9-5.6-7.5-10.9c1.8-6.2,8.6-8.6,14.5-8c3.5,0.4,6.8,1.6,10,3c1.4,0.6,3.3,0.2,3.7-1.5
	c2.6-11.7,5.3-23.4,7.7-35.1c2.4-11.8,3.2-23.7,3.6-35.7c0.4-11.7,0.9-23.4,2.4-35c1.4-11.4,3.6-22.7,6.4-33.8
	c1.4-5.5,3-11,4.7-16.4c1.6-4.9,3-9.9,5.8-14.3c1.2-1.9,2.6-3.7,4.4-4.9c1.7-1.1,3.7-1.7,5.8-2c2.3-0.3,4.7-0.2,7.1-0.3
	c3,0,6.1,0,9.1,0c9.9,0.2,21.5-0.2,30,5.7c3.7,2.5,6.6,6.3,9.1,10c2.6,3.9,4.9,8.1,6.8,12.3c2,4.4,3.1,9.1,3.8,13.9
	c0.9,5.7,0.4,11.4,0.2,17.1c-0.5,11.7,2.2,23,3.7,34.5c0.4,2.8,0.6,5.7,0.8,8.5C216.7,160.6,221.7,160.7,221.6,157.4z"/>
<path d="M177.7,184.8c-0.6,1-3,0.6-3.9,0.6c-2,0-4.1,0-6.1,0c-3.8,0-7.6-0.2-11.4-0.4c-3.6-0.2-7.1-0.6-10.7-0.7c-0.5,0-1,0-1.6-0.1
	c0.3,0.1-0.3-0.1-0.4-0.1c-0.4-0.1-0.8-0.2-1.1-0.3c-1.3-0.4-2.7-1.1-3.5-2.3c-1-1.3-1.2-2.9-1.2-4.5c0-1.5,0-3.1,0.9-4.4
	c1.5-2.1,4.4-2.8,6.8-3.2c7.8-1.5,15.9-1.7,23.8-1.1c1.9,0.1,3.6,0.4,5.1,1.6c1.4,1.1,2.5,2.6,3.3,4.2
	C179.2,177.2,179.1,181.7,177.7,184.8c-0.5,1.2-0.4,2.7,0.9,3.4c1.1,0.6,2.9,0.4,3.4-0.9c1.7-4,2.2-8.7,1-12.9c-1.1-3.9-4-8-7.7-9.8
	c-2.2-1-4.5-1.2-6.9-1.4s-4.9-0.2-7.3-0.2c-4.9,0-9.9,0.5-14.8,1.2c-3.7,0.5-7.4,1.4-10.3,3.8c-3.4,2.9-3.8,7.7-3.1,11.8
	c0.7,4.4,4.1,7.5,8.3,8.8c3.4,1,7,0.6,10.5,0.9c5.2,0.5,10.5,0.7,15.7,0.8c2.6,0,5.2,0,7.8,0s5.3-0.6,6.8-3.1
	C183.7,184.6,179.4,182.1,177.7,184.8z"/>
<g id="Слой_4">
	<path fill="#040507" d="M193.7,79.7c2.8,2.9,5.3,10.6-5.8,15.1c-9.5,3.8-25.2,4.6-36.4,3c-10.6-1.5-16.1-14.4-10.6-20.5
		C145.1,72.6,182.3,68.1,193.7,79.7z"/>
	<path fill="#586973" d="M148.9,78.7c-3.1,2.1-3.9,10,2.4,13.7c5.9,3.6,31,4.6,37.5-5C196.9,75.2,155.8,74.1,148.9,78.7z"/>
	<path fill="#A0BCC8" d="M157.3,88.2c6.3,1,20,2.4,31.7-1.2c6.9-11.8-33.3-12.8-40.1-8.2c-0.4,0.3-0.8,0.7-1.2,1.2
		C149,84,152.1,87.4,157.3,88.2z"/>
	<path fill="#E3F3F7" d="M159.4,76.4c1.1,7.4,8.5,8.8,13.8,9c3,0.1,9.6,0.5,16.5-0.1C191.3,77.8,172.3,75.4,159.4,76.4z"/>
</g>
</svg>
