<?xml version="1.0" encoding="utf-8"?>
<!-- Generator: Adobe Illustrator 26.0.2, SVG Export Plug-In . SVG Version: 6.00 Build 0)  -->
<svg version="1.1" id="Слой_1" xmlns="http://www.w3.org/2000/svg" xmlns:xlink="http://www.w3.org/1999/xlink" x="0px" y="0px"
	 viewBox="0 0 296.1 275" enable-background="new 0 0 296.1 275" xml:space="preserve">
<g id="Слой_5">
</g>
<path fill="#D9EFFD" d="M217.4,193.9c-0.3,2.9-0.5,5.7-0.9,8.5c-1.9,15.9-4.6,31.5-11.4,46c-2.4,5.1-5.2,10.1-9.5,13.7
	c-10.1,8.5-24.8,7.1-38,7c-6.7-0.1-13.8,0.1-19.3-3.6c-6.2-4.1-8.6-11.9-10.5-19.1c-4.6-17.4-8.9-35-12.9-52.5"/>
<path fill="#D9EFFD" d="M217.4,194.9c-0.3-2.9-0.5-5.7-0.9-8.5c-1.9-15.9-4.6-31.5-11.4-46c-2.4-5.1-5.2-10.1-9.5-13.7
	c-10.1-8.5-24.8-7.1-38-7c-6.7,0.1-13.8-0.1-19.3,3.6c-6.2,4.1-8.6,11.9-10.5,19.1c-4.6,17.4-8.9,35-12.9,52.5"/>
<path d="M214.8,193.8c-1.3,14-3.2,28.1-7.4,41.5c-2,6.4-4.5,12.8-8.1,18.5c-3.2,5-7.6,8.8-13.3,10.7c-5.6,1.9-11.5,2.2-17.4,2.2
	c-3,0-6.1-0.1-9.1-0.1c-3.1-0.1-6.3,0-9.4-0.2c-5.7-0.4-11.2-2.1-14.6-7.1c-3.3-4.9-4.6-10.8-6.1-16.5c-4.3-16.5-8.3-32.5-12-49.1
	c-0.7-3.1-5.6-2.4-4.9,0.7c3.5,15.5,7.3,31,11.3,46.4c1.6,6.3,3,13,6.2,18.8c3.1,5.8,8.2,9.7,14.7,11c6.4,1.3,13.1,0.9,19.6,1
	c6.4,0.1,12.8,0.1,19.1-1.2c6.3-1.3,12.2-4.3,16.5-9.1c4.8-5.3,7.8-12.1,10.3-18.7c5.9-15.6,8.1-31.3,9.6-47.8
	c0.1-1.3-1.1-3.6-2.4-3.6C215.8,191.3,214.9,192.5,214.8,193.8L214.8,193.8z"/>
<path d="M219.9,194.2c-1.3-14.9-3.3-29.9-8-44.2c-2.2-6.7-4.9-13.6-8.9-19.4c-3.8-5.6-8.9-9.6-15.3-11.9c-5.9-2.1-12.4-2.5-18.7-2.5
	c-3.2,0-6.3,0.1-9.5,0.1c-3.3,0.1-6.5,0-9.8,0.2c-6.7,0.5-13.1,2.5-17.3,8c-3.9,5-5.7,11.2-7.3,17.3c-4.5,17.1-8.7,34.1-12.6,51.4
	c-0.7,3.1,4.1,4.7,4.8,1.5c3.3-14.7,6.9-29.4,10.7-44c1.6-6.1,2.8-12.6,5.5-18.3c1.1-2.5,2.6-4.8,4.6-6.7c2.1-2,4.8-3,7.6-3.7
	c3-0.7,6.1-0.7,9.1-0.8c3.1,0,6.1-0.1,9.2-0.2c5.9-0.1,11.9-0.2,17.8,1c5.7,1.2,10.9,3.6,14.8,8c4.3,4.8,7,11.2,9.2,17.2
	c5.5,14.9,7.7,30.9,9.2,46.7c0.1,1.3,1.1,2.5,2.5,2.5C218.6,196.7,220,195.6,219.9,194.2L219.9,194.2z"/>
<g id="Слой_4">
	<path fill="#040507" d="M188.1,148c2.7,2.9,5,10.7-5.5,15.2c-9,3.9-23.9,4.7-34.5,3c-10-1.6-15.2-14.5-10-20.6
		C142,140.8,177.3,136.3,188.1,148z"/>
	<path fill="#586973" d="M145.6,147c-2.9,2.1-3.7,10,2.2,13.8c5.6,3.6,29.4,4.7,35.5-5.1C191.1,143.4,152.2,142.3,145.6,147z"/>
	<path fill="#A0BCC8" d="M153.5,156.5c5.9,1,18.9,2.5,30.1-1.2c6.6-11.9-31.5-12.9-38-8.3c-0.4,0.3-0.8,0.7-1.1,1.3
		C145.7,152.3,148.7,155.7,153.5,156.5z"/>
	<path fill="#E3F3F7" d="M155.5,144.6c1.1,7.5,8,8.8,13.1,9.1c2.8,0.1,9.1,0.5,15.7-0.1C185.8,146.1,167.8,143.7,155.5,144.6z"/>
</g>
<g id="Слой_4__x28_копия_x29_">
	<path fill="#040507" d="M188.1,243.5c2.7-2.9,5-10.6-5.5-15.1c-9-3.8-23.9-4.6-34.5-3c-10,1.5-15.2,14.4-10,20.5
		C142,250.6,177.3,255.1,188.1,243.5z"/>
	<path fill="#586973" d="M145.6,244.5c-2.9-2.1-3.7-10,2.2-13.7c5.6-3.6,29.4-4.6,35.5,5C191.1,248,152.2,249.1,145.6,244.5z"/>
	<path fill="#A0BCC8" d="M153.5,235c5.9-1,18.9-2.4,30.1,1.2c6.6,11.8-31.5,12.8-38,8.2c-0.4-0.3-0.8-0.7-1.1-1.2
		C145.7,239.2,148.7,235.9,153.5,235z"/>
	<path fill="#E3F3F7" d="M155.5,246.8c1.1-7.4,8-8.8,13.1-9c2.8-0.1,9.1-0.5,15.7,0.1C185.8,245.4,167.8,247.8,155.5,246.8z"/>
</g>
</svg>
