<?xml version="1.0" encoding="utf-8"?>
<!-- Generator: Adobe Illustrator 26.0.2, SVG Export Plug-In . SVG Version: 6.00 Build 0)  -->
<svg version="1.1" id="Слой_1" xmlns="http://www.w3.org/2000/svg" xmlns:xlink="http://www.w3.org/1999/xlink" x="0px" y="0px"
	 viewBox="0 0 296.1 275" enable-background="new 0 0 296.1 275" xml:space="preserve">
<path fill="#D9EFFD" d="M212.1,198.4c2.6,9.7,4.3,19.7,5,29.7c0.7,9.7,0.5,19.5-1.6,29c-0.3,1.3-0.6,2.6-1.4,3.7
	c-0.9,1.1-2.2,1.8-3.6,2.4c-8.3,3.9-17.1,7.2-26.2,8.4s-18.8,0-26.8-4.6c-2.9-1.7-5.7-4.1-6.4-7.3c-0.8-3.9,1.8-7.8,5.3-9.8
	c3.4-2,7.5-2.3,11.5-2.5c2.5-0.1,7.5,0.1,7.7-2.3c0.1-1.6,0.7-2.5,1.1-4c1.7-7.3,1.8-15,0.3-22.4c-0.3-1.7-0.8-3.4-1.8-4.7
	c-1.5-1.9-3.9-2.7-6.2-3.3c-7.3-1.7-14.9-1.8-22.2-0.1c-5.7,1.3-11.9,4.5-13,10.2c-1.2,6.1,4.1,12,3.6,18.2
	c-0.4,5.8-5.8,10.1-11.2,12.2c-6.8,2.6-14.2,3-21.4,3.4c-6.3,0.3-12.7,0.6-18.7-1.4c-6-2-11.4-6.7-12.4-12.9
	c-0.3-1.6-0.2-3.4,0.6-4.8c1.1-1.9,3.3-3,5.4-3.7c6.1-2,12.8-2.3,19-0.6c1.3,0.3,2.7,0.7,3.8,0.1c1.2-0.7,1.6-2.3,1.8-3.7
	c3.2-16.9,13.7-31.6,18.8-48.1c1.5-4.8,2.5-9.7,4.4-14.3s4.9-9,9.2-11.4c7-3.9,15.3-3.2,23.3-3.2c4.9,0,10,0.5,14.9,1.1
	c10.4,1.3,19.2,8.6,24.7,17.4C205.2,178.1,209.4,188.4,212.1,198.4"/>
<path d="M209.7,199.1c2.6,9.9,4.4,20,5,30.3c0.3,5.2,0.4,10.4,0,15.5c-0.2,2.5-0.4,4.9-0.8,7.4c-0.2,1.2-0.4,2.4-0.6,3.5
	c-0.2,1-0.4,2.2-0.9,3.1c-0.9,1.7-3.6,2.4-5.2,3.1c-2.2,1-4.4,1.9-6.6,2.8c-4.7,1.8-9.5,3.2-14.4,4.1c-8.7,1.5-18.3,0.9-26.2-3.3
	c-2.9-1.5-6.9-4.1-6.3-7.9c0.6-3.8,4.4-6,7.8-6.8c3.7-0.9,7.5-0.5,11.3-1c1.6-0.2,3.3-0.6,4.4-1.9c0.7-0.8,0.9-1.6,1.1-2.6
	c0.2-1.1,0.6-2.1,0.9-3.1c1.3-5,1.7-10.3,1.4-15.3c-0.1-2.6-0.4-5.1-0.9-7.7c-0.4-2.2-0.9-4.4-2.2-6.2c-2.8-3.8-8-4.7-12.3-5.3
	c-5.2-0.7-10.3-0.7-15.5,0.1c-7.5,1.1-17.1,4.7-18.3,13.3c-0.6,4.3,1.2,8.2,2.5,12.2c1.3,3.7,1.7,7.2-0.8,10.4
	c-2.3,3-5.9,4.9-9.4,6.1c-4.6,1.5-9.5,2.1-14.3,2.4c-8.8,0.6-19.1,1.9-26.9-3.2c-3-2-5.5-4.9-6.2-8.5c-0.3-1.7-0.1-3.5,1.4-4.6
	c1.6-1.2,3.7-1.7,5.6-2.2c4.6-1.1,9.4-1.1,14,0c2.3,0.6,4.7,1.3,6.9-0.1c2-1.3,2.4-3.6,2.8-5.8c1.8-9,5.7-17.4,9.6-25.7
	c4.1-8.6,7.9-17.2,10.4-26.5c2.3-8.2,5.1-17.5,14-20.6c4.4-1.5,9-1.6,13.6-1.6c4.9,0,9.9,0.1,14.8,0.5c4.2,0.4,8.4,0.8,12.2,2.5
	c3.6,1.6,6.9,4,9.8,6.7c6.4,6.2,10.6,14.6,13.8,22.7C207,190.1,208.5,194.6,209.7,199.1c0.9,3.1,5.7,1.8,4.8-1.3
	c-2.7-9.7-6.4-19.2-11.6-27.8c-4.5-7.5-10.7-14.3-18.8-18c-4.3-1.9-8.7-2.6-13.4-3c-5.1-0.5-10.2-0.6-15.3-0.7
	c-9.5-0.1-19.6,0.8-26,8.9c-6.2,7.9-7.2,18.4-10.7,27.6c-3.5,9-8.1,17.5-11.8,26.4c-1.8,4.4-3.4,8.8-4.5,13.4
	c-0.2,1.1-0.4,2.2-0.7,3.2c-0.1,0.5-0.2,1.3-0.7,1.5c-0.8,0.2-2.2-0.5-3-0.7c-1.3-0.3-2.6-0.5-4-0.7c-5-0.6-10.3-0.1-15.1,1.6
	c-2.1,0.7-4.2,1.6-5.7,3.3c-1.7,1.9-2.4,4.3-2.2,6.8c0.7,9.3,9.3,15.4,17.8,17.1c5.1,1,10.4,0.8,15.6,0.6c5.1-0.2,10.3-0.5,15.4-1.5
	c8.2-1.6,18.6-6.2,19.9-15.6c0.6-4.5-1.3-8.5-2.7-12.7c-1.2-3.5-1.5-7,1.2-9.9c2.6-2.7,6.5-4,10.1-4.7c4.9-1,10.1-1.2,15.1-0.6
	c2.4,0.3,4.8,0.7,7,1.5c1.8,0.6,3,1.7,3.6,3.5c1.5,4.7,1.6,10.1,1.3,15c-0.1,2.5-0.5,5-1,7.5c-0.2,1.1-0.6,2.2-0.9,3.3
	c0,0.1-0.4,1.7-0.3,1.7c-0.1,0,0.2-0.3,0.2-0.3c0.2-0.1-0.3,0,0.1-0.1c-0.4,0.1-0.1,0.1,0,0.1c-0.2,0.1-0.3,0.1-0.5,0.2
	c-0.3,0.1-0.7,0.2-1.1,0.2c-0.4,0.1-1.6,0.1-2.3,0.1c-1.9,0.1-3.9,0.1-5.8,0.4c-4.7,0.6-9.5,2-12.6,5.9c-2.9,3.7-3.8,8.6-1.1,12.7
	c2.6,3.9,7,6.2,11.2,7.9c4.4,1.8,9.2,2.6,13.9,2.8c10.2,0.5,20.2-2.2,29.5-6.1c2.4-1,4.8-2,7.1-3.1c2.2-1,4.1-2.4,5.1-4.6
	c1.1-2.4,1.4-5.1,1.8-7.6c0.4-2.7,0.7-5.5,0.9-8.2c0.7-10.6-0.2-21.4-1.9-31.9c-0.8-5.1-2-10.2-3.3-15.2
	C213.7,194.6,208.9,196,209.7,199.1L209.7,199.1z"/>
<g id="Слой_4__x28_копия_x29_">
	<path fill="#040507" d="M186.8,179.4c2.7,2.9,5,10.6-5.5,15.1c-9,3.8-24,4.6-34.6,3c-10.1-1.5-15.3-14.4-10.1-20.5
		C140.6,172.3,176,167.9,186.8,179.4z"/>
	<path fill="#586973" d="M144.3,178.5c-3,2.1-3.7,10,2.2,13.7c5.6,3.6,29.4,4.6,35.6-5C189.9,175,150.8,173.8,144.3,178.5z"/>
	<path fill="#A0BCC8" d="M152.2,188c5.9,1,19,2.4,30.2-1.2c6.6-11.8-31.6-12.8-38.1-8.2c-0.4,0.3-0.8,0.7-1.1,1.2
		C144.4,183.7,147.3,187.1,152.2,188z"/>
	<path fill="#E3F3F7" d="M154.2,176.1c1.1,7.4,8.1,8.8,13.1,9c2.8,0.1,9.2,0.5,15.7-0.1C184.6,177.6,166.5,175.2,154.2,176.1z"/>
</g>
</svg>
