<?xml version="1.0" encoding="utf-8"?>
<!-- Generator: Adobe Illustrator 26.0.2, SVG Export Plug-In . SVG Version: 6.00 Build 0)  -->
<svg version="1.1" id="Слой_1" xmlns="http://www.w3.org/2000/svg" xmlns:xlink="http://www.w3.org/1999/xlink" x="0px" y="0px"
	 viewBox="0 0 296.1 275" enable-background="new 0 0 296.1 275" xml:space="preserve">
<path fill="#D9EFFD" d="M181.9,223.2c-0.3-3.9-0.7-7.8-1-11.7c-0.1-1.3-0.2-2.7-0.5-4c-1.3-6-5.9-10.9-11.5-13.4s-11.9-2.8-17.9-1.8
	c-1.5,0.3-3,0.6-4.3,1.4c-2.8,1.7-3.9,5.2-4.9,8.4c-0.6,2-1.2,4.1-1.8,6.1c-0.9,3.2-1.9,6.4-2.7,9.6c-1.6,6-3.1,12-3.6,18.2
	c-0.4,4.6-0.4,9.6-3,13.5c-0.4,0.5-0.8,1.1-1.4,1.4c-0.8,0.4-1.7,0.3-2.5,0.2c-2.4-0.2-4.8-0.5-7.2-0.7c-1.8-0.2-3.7-0.3-5.3,0.5
	c-0.9,0.5-1.6,1.2-2.3,2c-1.4,1.6-2.7,3.5-2.5,5.5c0.4,3.4,4.6,4.7,7.9,5.2c7.3,1.2,16.1,2.4,22.8-1.2l0.8-0.7
	c-0.1,1.6,0.3,3.2,1.2,4.5c2.2,2.9,6.2,3.6,9.9,3.8c9,0.5,18.4-0.3,26.3-4.7c0.9-0.5,1.8-1.1,2.4-1.9c0.5-0.8,0.7-1.8,0.9-2.8
	c0.8-5.3,1.2-10.6,1.3-15.9C183.1,237.4,182.5,230.3,181.9,223.2z M157.6,249.8c-0.2,0.7-0.4,1.5-0.8,2.2c-1.1,1.7-3.6,2.1-5.6,2.3
	c0.2-4.2,0.9-8.5,2.1-12.5c0.3-1.1,0.8-2.3,1.9-2.6c0.7-0.2,1.5,0.1,2.1,0.7c0.5,0.6,0.8,1.3,1,2
	C158.9,244.5,158.3,247.2,157.6,249.8z"/>
<path d="M183.1,223.2c-0.3-3.6-0.6-7.2-0.9-10.7c-0.3-3-0.5-6-1.8-8.8c-2.2-5-6.6-8.9-11.6-11c-5.8-2.5-12.4-2.7-18.6-1.5
	c-2.9,0.5-5.3,1.7-7,4.1c-1.6,2.3-2.3,5.2-3.1,7.8c-2,6.7-4.1,13.5-5.7,20.3c-0.8,3.4-1.4,6.7-1.9,10.2c-0.4,3.1-0.4,6.2-0.9,9.3
	c-0.2,1.4-0.6,2.9-1.2,4.2c-0.3,0.6-0.6,1.2-1,1.8c-0.7,1-1.4,1.1-2.6,1c-3.3-0.3-6.6-1-9.9-0.9c-3.1,0.1-5.1,1.7-6.9,4.1
	c-1.6,2.1-2.6,4.8-1.2,7.3c1.3,2.4,4.1,3.5,6.6,4c3,0.7,6.1,1.1,9.1,1.4c5.7,0.5,12.8,0.5,17.4-3.3c-0.7-0.3-1.4-0.6-2.1-0.9
	c-0.3,5.6,4.5,8.5,9.5,9.2c5.5,0.8,11.4,0.6,16.9-0.3c2.8-0.4,5.6-1.1,8.2-2.2c2.3-0.9,5.3-2,6.9-3.9c0.9-1,1.2-2.3,1.4-3.7
	c0.3-1.7,0.5-3.4,0.7-5.1c0.3-3.2,0.6-6.4,0.6-9.7C184.4,238.4,183.8,230.8,183.1,223.2c-0.1-1.6-2.6-1.6-2.5,0
	c1,11.8,1.7,23.6,0.1,35.4c-0.2,1.3-0.2,2.9-0.9,3.9s-2,1.6-3.1,2.1c-2.3,1.2-4.8,2-7.3,2.6c-5.1,1.3-10.3,1.5-15.5,1.3
	c-4.7-0.2-11.9-0.8-11.6-7.1c0.1-1.2-1.4-1.5-2.1-0.9c-1.6,1.3-3.8,1.9-5.8,2.3c-2.7,0.5-5.4,0.5-8.2,0.4c-2.7-0.2-5.4-0.6-8.1-1
	c-2.1-0.3-4.5-0.8-6.2-2.2c-2.2-1.9-0.9-4.5,0.6-6.3c0.8-0.9,1.6-1.8,2.8-2.2c1.4-0.5,3-0.2,4.4-0.1c1.5,0.2,3,0.3,4.6,0.5
	c1.5,0.2,3.2,0.5,4.6,0.2c2.5-0.6,3.7-3.5,4.4-5.7c0.8-2.6,1.1-5.4,1.3-8.1c0.2-3.1,0.6-6.2,1.1-9.2c1.1-6.2,2.9-12.4,4.7-18.4
	c0.9-3,1.7-6.1,2.7-9.1c0.7-2.3,1.5-4.9,3.5-6.5c2.1-1.7,5.4-1.9,8-2.1c2.9-0.2,5.9-0.1,8.8,0.5c5.7,1.2,11.1,4.5,14,9.7
	c1.5,2.7,2,5.6,2.2,8.7c0.3,3.7,0.6,7.5,0.9,11.2C180.8,224.8,183.3,224.9,183.1,223.2z"/>
<path d="M156.4,249.5c-0.3,1.3-0.7,2.3-2,2.9c-1.1,0.5-2.4,0.6-3.5,0.7c0.5,0.4,1.1,0.8,1.6,1.2c0.1-2.3,0.3-4.6,0.8-6.9
	c0.2-1.1,0.4-2.3,0.7-3.4c0.2-0.9,0.4-1.9,0.8-2.8c0.3-0.6,0.6-1.1,1.3-0.7c0.7,0.4,0.9,1.5,1.1,2.3
	C157.5,245,156.9,247.3,156.4,249.5c-0.4,1.6,2,2.2,2.4,0.7c0.7-2.9,1.3-5.9,0.6-8.8c-0.3-1.2-1-2.3-2-3c-1.1-0.6-2.4-0.6-3.5,0.1
	c-0.9,0.7-1.4,1.7-1.7,2.8c-0.4,1.3-0.7,2.7-1,4.1c-0.6,2.9-1,5.9-1.1,8.9c0,0.9,0.8,1.3,1.6,1.2c1.5-0.2,3.1-0.4,4.5-1.2
	c1.7-0.9,2.4-2.4,2.8-4.2C159.2,248.6,156.8,247.9,156.4,249.5z"/>
<path d="M142.4,262.2c0.1-1,0.1-2,0.3-2.9c0.1-0.4,0.2-0.7,0.4-1c0.3-0.4,0.7-0.6,1.2-0.7c1.2-0.5,2.5-0.8,3.8-1.2
	c1.4-0.4,2.8-0.8,4.2-1.1c1.6-0.4,0.9-2.8-0.7-2.4c-1.5,0.4-3.1,0.8-4.6,1.2s-3,0.8-4.4,1.5c-1.2,0.6-2,1.6-2.3,2.9
	c-0.3,1.2-0.3,2.5-0.4,3.7c-0.1,0.7,0.6,1.3,1.3,1.3C141.9,263.4,142.3,262.8,142.4,262.2L142.4,262.2z"/>
<g id="Слой_4__x28_копия_x29_">
	<path fill="#040507" d="M176.4,199.8c1.8,1.8,3.4,6.7-3.7,9.6c-6,2.4-16,2.9-23.2,1.9c-6.7-1-10.2-9.2-6.7-13
		C145.5,195.3,169.2,192.5,176.4,199.8z"/>
	<path fill="#586973" d="M148,199.2c-2,1.3-2.5,6.3,1.5,8.7c3.8,2.3,19.7,2.9,23.8-3.2C178.5,197,152.3,196.3,148,199.2z"/>
	<path fill="#A0BCC8" d="M153.3,205.2c4,0.7,12.7,1.6,20.2-0.8c4.4-7.5-21.2-8.2-25.5-5.2c-0.3,0.2-0.5,0.5-0.7,0.8
		C148,202.6,150,204.7,153.3,205.2z"/>
	<path fill="#E3F3F7" d="M154.6,197.7c0.7,4.7,5.4,5.6,8.8,5.7c1.9,0.1,6.1,0.3,10.5-0.1C174.9,198.6,162.8,197.1,154.6,197.7z"/>
</g>
</svg>
