<?xml version="1.0" encoding="utf-8"?>
<!-- Generator: Adobe Illustrator 26.0.2, SVG Export Plug-In . SVG Version: 6.00 Build 0)  -->
<svg version="1.1" id="Слой_1" xmlns="http://www.w3.org/2000/svg" xmlns:xlink="http://www.w3.org/1999/xlink" x="0px" y="0px"
	 viewBox="0 0 296.1 275" enable-background="new 0 0 296.1 275" xml:space="preserve">
<path fill="#D9EFFD" d="M114.9,195.5c4,17.6,8.3,35.2,12.9,52.7c1.9,7.2,4.3,15,10.5,19.1c5.5,3.7,12.7,3.5,19.3,3.6
	c13.2,0.2,27.9,1.5,38-7c4.3-3.6,7.2-8.6,9.5-13.7c6.7-14.5,9.5-30.1,11.4-46c0.7-5.8,1.2-11.7,1.6-17.4c0.5-7.4-0.4-14.6-0.3-22.3
	c0.1-4.3,0.3-8.6,0.1-12.9c-0.1-4.1-0.2-8.2-0.4-12.4c-0.2-5.5-0.3-11-0.8-16.5c-0.5-5.4-1.5-11.4-5.6-15c-2.2-1.9-5.1-3-7.9-3.9
	c-12.4-4.1-25.7-6.9-38.5-4.2c-3.9,0.8-7.9,2.3-10.8,5.1c-2.9,2.8-4.4,7.3-2.8,11c2,4.7,7.8,6.3,12.9,7.2c5.1,0.9,10.8,2.1,13.4,6.5
	c1.4,2.4,1.5,5.2,1.5,8c0,3.7-0.4,7.4-0.9,11.1c-0.6,3.9-1.9,8.2-5.5,9.8c-1.7,0.7-3.6,0.7-5.4,0.7c-4.6-0.1-9.2-0.2-13.8-0.2
	c-3.7-0.1-7.5-0.1-11-1.4c-3.5-1.3-6.7-3.9-7.6-7.5c-1.5-5.8,3.3-11.5,3.1-17.4c-0.1-5-3.9-9.4-8.3-11.8c-4.4-2.4-9.6-3.1-14.5-3.8
	c-2.4-0.3-4.8-0.7-7.2-1c-6.8-1-13.8-1.9-20.4-0.1s-12.8,7.1-13.3,13.9c-0.2,2.5,0.4,5.2,2.2,6.9c1,1,2.3,1.7,3.7,2.2
	c5.1,2.1,10.9,2.4,16.2,1.1c3.3-0.9,7.6-2,9.4,0.9c0.5,0.8,0.6,1.7,0.8,2.5c2.7,17,5.4,33.9,8.1,50.9"/>
<path d="M112.5,196.2c2.8,12.3,5.7,24.6,8.9,36.9c1.5,6,3,12,4.7,17.9c1.3,4.7,2.9,9.5,5.8,13.4c3.2,4.3,7.6,7,12.8,8.1
	c5.2,1,10.6,0.8,15.9,0.9c10.1,0.2,20.6,0.7,30-3.5c10.4-4.6,15.6-15.1,19.5-25.2c4.2-11,6.5-22.7,8.1-34.4c0.8-6.1,1.5-12.2,2-18.3
	c0.5-6.2,0.6-12.2,0.3-18.4c-0.2-6.2,0-12.4,0-18.6c0-6.4-0.3-12.8-0.5-19.2c-0.2-5.8-0.3-11.7-1.2-17.5c-0.8-5.1-2.7-10.1-6.9-13.3
	c-2.2-1.6-4.8-2.6-7.4-3.5c-2.8-0.9-5.6-1.8-8.5-2.5c-5.9-1.6-12-2.7-18.2-2.9c-10.1-0.4-25,1.2-28.9,12.4
	c-1.8,5.1,0.1,10.2,4.5,13.3c3.8,2.7,8.6,3.2,13,4.1c4.1,0.9,8.7,2.3,9.9,6.8c0.7,2.7,0.4,5.8,0.2,8.6s-0.4,5.6-1,8.3
	c-0.4,1.9-1,4-2.4,5.4c-1.7,1.8-4.3,1.5-6.6,1.5c-6.1-0.1-12.4,0.1-18.5-0.5c-4.3-0.4-9.7-2.2-10.9-6.9c-0.6-2.2,0.1-4.5,0.8-6.6
	c0.8-2.4,1.7-4.7,2.1-7.2c0.9-5.3-1.2-10.4-5.1-14c-4.1-3.7-9.5-5.4-14.9-6.4c-6.1-1.1-12.2-1.9-18.4-2.6c-5.6-0.6-11.7-0.6-17,1.4
	c-4.5,1.8-8.8,4.8-11.2,9.2c-2.4,4.4-3,10.3,0.2,14.4c1.8,2.3,4.5,3.4,7.1,4.3c2.7,0.9,5.7,1.3,8.6,1.4c2.8,0,5.5-0.5,8.2-1.2
	c0.9-0.2,1.9-0.5,2.8-0.6c0.5,0,1-0.1,1.4,0c0.3,0,0.7,0.1,0.9,0.2c0.6,0.3,0.7,1.1,0.9,2c0.3,1.6,0.5,3.2,0.8,4.8
	c0.5,3.1,1,6.2,1.5,9.3c1,6.3,2,12.6,3,18.8c1,6.1,2,12.2,2.9,18.3c0.2,1.3,1.9,2.1,3.1,1.7c1.4-0.4,2-1.7,1.7-3.1
	c-2-12.2-3.9-24.5-5.9-36.7c-0.5-3.1-1-6.2-1.5-9.3c-0.2-1.4-0.4-2.8-0.7-4.2c-0.2-1.3-0.4-2.7-1.1-3.9c-2.7-4.5-8.5-3-12.6-2
	c-4.9,1.2-10.7,0.8-15.2-1.6c-4-2.1-3.8-7-1.8-10.5c5.3-9.3,17.5-8.8,26.6-7.6c5.7,0.7,11.5,1.3,17.1,2.6c4.6,1,9.4,3,12.1,7.1
	c1.2,1.8,1.8,3.7,1.7,5.9c-0.1,2.3-1.1,4.6-1.8,6.8c-1.6,4.8-2.6,9.9,0.7,14.3c3.3,4.4,8.5,6.1,13.8,6.6c5.9,0.5,11.8,0.3,17.7,0.4
	c2.9,0,5.8,0.2,8.5-1.2c2.1-1.1,3.6-3,4.6-5.1c2.2-4.8,2.5-10.6,2.7-15.8c0.2-5.3-0.2-10.9-4.6-14.4c-3.8-3-8.5-3.7-13.1-4.6
	c-3.6-0.7-8.2-1.7-10.1-5.3c-2.1-4,1.2-8.5,4.6-10.5c4.5-2.6,10.1-3.3,15.2-3.5c5.7-0.2,11.3,0.5,16.9,1.7c2.9,0.6,5.8,1.4,8.6,2.3
	c2.5,0.8,5.1,1.5,7.5,2.6c2.1,1,3.8,2.4,5,4.4s1.8,4.2,2.2,6.4c1,5.3,1,10.9,1.2,16.3c0.2,6.2,0.5,12.3,0.5,18.5
	c0.1,6.2-0.3,12.3,0,18.5c0.2,5.8,0.4,11.6,0,17.4c-0.9,11.6-2.1,23.3-4.5,34.8c-2.2,10.8-5.5,21.9-11.3,31.4
	c-2.6,4.2-5.9,7.6-10.3,9.8c-4.1,2-8.7,2.9-13.2,3.2c-4.9,0.4-9.9,0.2-14.9,0.1c-4.9-0.1-9.9,0.2-14.7-0.7
	c-4.6-0.9-8.5-3.1-11.1-7.1c-2.5-3.9-3.8-8.4-5-12.8c-3.2-11.9-6.1-23.8-9-35.7c-1.4-5.8-2.7-11.5-4-17.3
	C116.6,191.7,111.8,193.1,112.5,196.2L112.5,196.2z"/>
<g id="Слой_4">
	<path fill="#040507" d="M193,243.6c2.8-2.9,5.3-10.6-5.8-15.1c-9.5-3.8-25.2-4.6-36.4-3c-10.6,1.5-16.1,14.4-10.6,20.5
		C144.4,250.7,181.6,255.2,193,243.6z"/>
	<path fill="#586973" d="M148.2,244.6c-3.1-2.1-3.9-10,2.4-13.7c5.9-3.6,31-4.6,37.5,5C196.2,248.1,155.1,249.2,148.2,244.6z"/>
	<path fill="#A0BCC8" d="M156.6,235.1c6.3-1,20-2.4,31.7,1.2c6.9,11.8-33.3,12.8-40.1,8.2c-0.4-0.3-0.8-0.7-1.2-1.2
		C148.3,239.3,151.4,235.9,156.6,235.1z"/>
	<path fill="#E3F3F7" d="M158.6,246.9c1.1-7.4,8.5-8.8,13.8-9c3-0.1,9.6-0.5,16.5,0.1C190.6,245.5,171.6,247.9,158.6,246.9z"/>
</g>
</svg>
