<?xml version="1.0" encoding="utf-8"?>
<!-- Generator: Adobe Illustrator 26.0.2, SVG Export Plug-In . SVG Version: 6.00 Build 0)  -->
<svg version="1.1" id="Слой_1" xmlns="http://www.w3.org/2000/svg" xmlns:xlink="http://www.w3.org/1999/xlink" x="0px" y="0px"
	 viewBox="0 0 296.1 275" enable-background="new 0 0 296.1 275" xml:space="preserve">
<path fill="#D9EFFD" d="M116.3,168.3c-0.5,2-0.9,3.9-1.4,5.9l-0.7,2.1c-2.7,17-5.3,33.1-8,50.1c-0.1,0.9-0.3,1.8-0.8,2.5
	c-1.8,2.9-6.1,1.8-9.4,0.9c-5.3-1.4-11.1-1-16.2,1.1c-1.3,0.5-2.7,1.2-3.7,2.2c-1.8,1.8-2.4,4.4-2.2,6.9c0.6,6.8,6.7,12.1,13.3,13.9
	c6.6,1.8,13.6,0.9,20.4-0.1c2.4-0.3,4.8-0.7,7.2-1c5-0.7,10.1-1.4,14.5-3.8c4.4-2.4,8.2-6.8,8.3-11.8c0.2-6-4.6-11.6-3.1-17.4
	c0.9-3.6,4.1-6.3,7.6-7.5c3.5-1.3,7.3-1.3,11-1.4c4.6-0.1,9.2-0.2,13.8-0.2c1.8,0,3.7,0,5.4,0.7c3.6,1.6,4.9,5.9,5.5,9.8
	c0.6,3.7,0.9,7.4,0.9,11.1c0,2.7-0.1,5.6-1.5,8c-2.6,4.5-8.3,5.6-13.4,6.5s-10.9,2.5-12.9,7.2c-1.6,3.7-0.1,8.2,2.8,11
	c2.9,2.8,6.8,4.3,10.8,5.1c12.8,2.7,26.1-0.1,38.5-4.2c2.8-0.9,5.7-1.9,7.9-3.9c4.1-3.6,5.1-9.5,5.6-15s0.6-11,0.8-16.5
	c0.1-4.1,0.2-8.2,0.4-12.4c0.1-4.3-0.1-8.6-0.1-12.9c-0.1-7.8,0.8-15,0.3-22.3c-0.3-4.8-0.7-9.7-1.3-14.6"/>
<path d="M113.9,167.6c-0.5,2-0.8,4-1.4,5.9c-0.2,0.8-0.6,1.5-0.7,2.3c-0.9,4.4-1.4,8.9-2.1,13.3c-1.4,8.8-2.8,17.6-4.2,26.3
	c-0.3,2.2-0.7,4.4-1,6.5c-0.2,1.1-0.3,2.1-0.5,3.2c-0.1,0.8-0.2,1.7-0.6,2.4c-0.1,0.3-0.5,0.4-0.8,0.5c-0.4,0.1-1.2,0.1-1.8,0.1
	c-1.4-0.1-2.8-0.5-4.2-0.9c-4.1-1-8.4-1.1-12.6-0.3c-3.8,0.7-8.1,2.2-10.4,5.5c-4.4,6.1-0.9,14.6,4.1,19c6.1,5.2,14,6.4,21.8,5.9
	c4.4-0.3,8.8-1,13.2-1.6c4.1-0.6,8.3-1,12.3-2.2c7-2,14.2-6.8,15.3-14.6c0.6-3.8-0.7-7.4-1.9-11c-1-2.9-2.1-6.3-0.4-9.2
	c1.6-2.8,4.7-4.2,7.8-4.8c4.1-0.8,8.4-0.6,12.5-0.7c2.3,0,4.6-0.1,6.9-0.1c1.9,0,4-0.3,5.8,0.2c2.9,0.7,4,3.9,4.6,6.5
	c0.9,4,1.2,8.2,1.2,12.3c0,3.3-0.2,6.8-3.1,8.9c-2.6,1.8-5.9,2.5-8.9,3c-3.2,0.6-6.4,1.2-9.4,2.7c-3.1,1.5-5.6,4-6.6,7.3
	c-1.1,3.6-0.1,7.6,2.1,10.6c4.8,6.6,13.9,8.3,21.5,8.7c8.6,0.5,17.3-1,25.5-3.3c3.9-1.1,7.9-2.2,11.6-4c3.4-1.7,6-4.4,7.5-7.9
	c1.5-3.4,2.1-7,2.4-10.6c0.4-4.4,0.6-8.7,0.7-13.1c0.3-9.1,0.6-18.1,0.4-27.2c-0.2-8.7,0.7-17.3,0.1-26c-0.3-4.4-0.7-8.8-1.2-13.2
	c-0.1-1.3-1-2.5-2.5-2.5c-1.2,0-2.6,1.1-2.5,2.5c0.9,8.5,1.6,17,1.3,25.6c-0.2,4.4-0.3,8.7-0.3,13.1c0.1,4.4,0.2,8.8,0,13.2
	c-0.3,8.8-0.3,17.6-1.1,26.4c-0.3,3.2-0.6,6.5-1.9,9.4c-1.3,3.1-3.7,5.2-6.8,6.4c-3.7,1.5-7.7,2.6-11.5,3.6c-4,1-8.1,1.9-12.2,2.3
	c-4.1,0.4-8.3,0.5-12.5,0c-3.5-0.4-7.2-1.1-10.4-2.8c-2.9-1.5-5.3-4-5.8-7.3c-0.4-2.7,1-5,3.3-6.4c2.6-1.6,5.7-2.2,8.7-2.7
	c3.2-0.6,6.5-1.3,9.5-2.8c3.1-1.7,5.5-4.5,6.3-7.9c1-4,0.6-8.5,0.2-12.6c-0.6-6.6-1.9-16-9.9-17.3c-2.1-0.3-4.2-0.2-6.3-0.2
	s-4.3,0.1-6.4,0.1c-4.3,0.1-8.6,0-12.8,0.6c-7.1,1-14.3,6-13.8,13.9c0.2,3.7,1.8,7,2.8,10.5c0.9,3.1,0.7,5.9-1,8.7
	c-4,6.3-12.2,7.5-19,8.4c-4.2,0.6-8.4,1.3-12.6,1.7c-4.1,0.4-8.3,0.7-12.3-0.1c-5.8-1.2-11.8-4.9-13.2-11.1c-0.6-3,0.3-5.8,3-7.3
	c3.3-1.7,7.4-2.3,11.1-2.2c3.5,0.2,6.7,1.6,10.2,1.7c3.5,0.2,6.6-1.7,7.4-5.3c0.9-4.2,1.4-8.6,2.1-12.8s1.4-8.5,2-12.7
	c0.7-4.3,1.4-8.6,2.1-12.9c0.3-2.2,0.7-4.3,1-6.5c0.3-2,0.5-4.1,1-6.1c0.2-0.7,0.5-1.4,0.7-2.1c0.6-1.9,0.9-3.9,1.4-5.9
	C119.4,165.8,114.6,164.5,113.9,167.6L113.9,167.6z"/>
<path fill="#D9EFFD" d="M116.2,169.9c-0.5-2-1.3-4.5-1.8-6.4L114,162c-2.7-17-5.4-33.9-8.1-50.9c-0.1-0.9-0.3-1.8-0.8-2.5
	c-1.8-2.9-6.1-1.8-9.4-0.9c-5.3,1.4-11.1,1-16.2-1.1c-1.3-0.5-2.7-1.2-3.7-2.2c-1.8-1.8-2.4-4.4-2.2-6.9c0.6-6.8,6.7-12.1,13.3-13.9
	c6.6-1.8,13.6-0.9,20.4,0.1c2.4,0.3,4.8,0.7,7.2,1c5,0.7,10.1,1.4,14.5,3.8s8.2,6.8,8.3,11.8c0.2,6-4.6,11.6-3.1,17.4
	c0.9,3.6,4.1,6.3,7.6,7.5c3.5,1.3,7.3,1.3,11,1.4c4.6,0.1,9.2,0.2,13.8,0.2c1.8,0,3.7,0,5.4-0.7c3.6-1.6,4.9-5.9,5.5-9.8
	c0.6-3.7,0.9-7.4,0.9-11.1c0-2.7-0.1-5.6-1.5-8c-2.6-4.5-8.3-5.6-13.4-6.5s-10.9-2.5-12.9-7.2c-1.6-3.7-0.1-8.2,2.8-11
	c2.9-2.8,6.8-4.3,10.8-5.1c12.8-2.7,26.1,0.1,38.5,4.2c2.8,0.9,5.7,1.9,7.9,3.9c4.1,3.6,5.1,9.5,5.6,15s0.6,11,0.8,16.5
	c0.1,4.1,0.2,8.2,0.4,12.4c0.1,4.3-0.1,8.6-0.1,12.9c-0.1,7.8,0.8,15,0.3,22.3c-0.3,4.8-0.9,10.1-1,14.6"/>
<path d="M118.6,169.3c-0.7-2.8-1.8-5.5-2.2-8.4c-0.7-4.3-1.4-8.6-2.1-13c-1.4-8.8-2.8-17.6-4.2-26.4c-0.3-2.1-0.7-4.2-1-6.4
	c-0.3-2-0.5-4.2-1-6.1c-1.1-3.6-4.4-5-8-4.7c-3.5,0.4-6.8,1.7-10.4,1.7s-7.6-0.6-10.7-2.5c-2.7-1.6-3.1-4.8-2.3-7.6
	c0.7-2.7,2.5-5,4.7-6.8c6.1-4.8,14.3-4.5,21.5-3.6c4.1,0.5,8.2,1.1,12.3,1.7c3.9,0.6,7.9,1.2,11.5,2.7c3,1.3,5.7,3.4,7.3,6.2
	c1.6,2.9,1.3,5.8,0.4,8.8c-1,3.4-2.6,6.8-2.6,10.4s1.7,7,4.5,9.3c6.4,5.2,15.3,4.4,23.1,4.5c2.2,0,4.4,0.1,6.7,0.1
	c2,0,4,0.1,5.9-0.4c3.6-0.9,5.9-3.8,7.2-7.1c1.4-3.5,1.7-7.5,2-11.2c0.3-3.9,0.7-8.4-0.5-12.2c-2.4-7.2-9.8-8.9-16.4-10.1
	c-5-0.9-12.8-3.2-10.9-9.9c1.9-7,11-8.7,17.1-9.3c8.2-0.7,16.5,0.5,24.5,2.7c3.8,1,7.8,2,11.4,3.7c3,1.4,5.2,3.7,6.3,6.8
	c1.1,3.2,1.5,6.6,1.7,9.9c0.3,4.4,0.5,8.7,0.6,13.1s0.3,8.9,0.4,13.3c0.1,4.4,0,8.8-0.1,13.2c-0.1,8.5,0.7,17,0,25.6
	c-0.3,3.9-0.7,7.9-0.8,11.9c-0.1,3.2,4.9,3.2,5,0c0.1-4.2,0.5-8.4,0.9-12.6c0.3-4.3,0.3-8.5,0.2-12.8c-0.2-4.4-0.3-8.9-0.3-13.3
	c0.1-4.6,0.2-9.1,0-13.6C220,108,220,99,219.2,90.1c-0.7-7.2-2.5-14.8-9.4-18.5c-3.6-2-7.8-3.1-11.7-4.2c-4.1-1.2-8.3-2.1-12.6-2.7
	c-8.3-1.2-17.1-1.3-25.1,1.4c-3.7,1.2-7.2,3.2-9.5,6.4c-2.2,3-3.3,6.9-2.4,10.6c1.7,7.2,9.6,9.2,15.9,10.4c3.1,0.6,6.3,1.2,8.9,2.9
	c2.9,2,3.3,5.3,3.3,8.5c0,4.1-0.3,8.4-1.1,12.4c-0.5,2.5-1.5,5.9-4.3,6.8c-1.9,0.6-4,0.3-5.9,0.3c-2.2,0-4.4-0.1-6.7-0.1
	c-4.1-0.1-8.5,0.2-12.5-0.6c-3.1-0.6-6.4-1.9-8.1-4.7c-1.8-2.9-0.7-6.2,0.3-9.2c1.2-3.5,2.5-7.1,2-10.9c-0.5-3.6-2.4-6.8-5-9.3
	c-6-5.7-14.4-6.6-22.2-7.7c-8.6-1.2-17.5-3.1-26.1-0.8c-6.6,1.7-12.8,6.5-14.8,13.2c-1,3.4-0.9,7.6,1.2,10.6
	c2.3,3.3,6.5,4.8,10.3,5.6c4.2,0.9,8.5,0.8,12.6-0.2c1.4-0.3,2.8-0.8,4.2-0.9c1.1-0.1,2.4-0.1,2.8,0.6c0.3,0.5,0.4,1.3,0.5,1.9
	c0.2,1.1,0.4,2.3,0.5,3.4c0.4,2.3,0.7,4.6,1.1,6.8c0.7,4.4,1.4,8.8,2.1,13.2c1.4,9,2.8,17.9,4.3,26.9c0.5,2.8,1.6,5.6,2.2,8.4
	C114.5,173.7,119.4,172.4,118.6,169.3L118.6,169.3z"/>
</svg>
