<?xml version="1.0" encoding="utf-8"?>
<!-- Generator: Adobe Illustrator 26.0.2, SVG Export Plug-In . SVG Version: 6.00 Build 0)  -->
<svg version="1.1" id="Слой_1" xmlns="http://www.w3.org/2000/svg" xmlns:xlink="http://www.w3.org/1999/xlink" x="0px" y="0px"
	 viewBox="0 0 296.1 275" enable-background="new 0 0 296.1 275" xml:space="preserve">
<path fill="#D9EFFD" d="M150.3,188.2l-0.1,0.1c-2.2-7.2-4.8-7.9-6.2-12.4c-0.9-3.1-2.3-8.9-2.5-12.2c-0.3-5.7-0.6-11.4-0.9-17.1
	c-0.1-1.7-0.2-3.5,0.3-5.2c0.5-1.6,1.6-3,2.6-4.3c2.1-2.7,4.3-5.5,6.4-8.2c0.1,0.3,0.3,0.6,0.4,0.8"/>
<path fill="#D9EFFD" d="M149.1,188.2l0.1,0.1c2.2-7.2,4.8-7.9,6.2-12.4c0.9-3.1,2.3-8.9,2.5-12.2c0.3-5.7,0.6-11.4,0.9-17.1
	c0.1-1.7,0.2-3.5-0.3-5.2c-0.5-1.6-1.6-3-2.6-4.3c-2.1-2.7-4.3-5.5-6.4-8.2c-0.1,0.3-0.3,0.6-0.4,0.8"/>
<path d="M148.1,189.4L148.1,189.4c1.2,1.8,4,1.7,4.7-0.4c0.6-1.9,0.2-3.6,1.3-5.3c0.7-1.2,1.5-2.2,2.2-3.4c1.8-3,2.5-6.5,3.2-9.9
	c0.9-4.4,1.1-8.8,1.4-13.2c0.1-2.7,0.3-5.4,0.4-8.1c0.1-2.5,0.4-5-0.1-7.4c-0.6-2.7-2.4-4.9-4-7c-1.9-2.5-3.8-5-5.8-7.4
	c-1-1.2-3.3-0.8-3.9,0.5c-0.1,0.3-0.3,0.6-0.4,0.8c-1.5,2.9,2.8,5.4,4.3,2.5c0.1-0.3,0.3-0.6,0.4-0.8c-1.3,0.2-2.6,0.3-3.9,0.5
	c1.6,2,3.1,4,4.7,6.1c1.3,1.6,2.9,3.3,3.6,5.3c0.7,2.1,0.3,4.6,0.1,6.7c-0.1,2.5-0.3,5.1-0.4,7.6c-0.2,4.2-0.3,8.2-1.2,12.3
	c-0.4,1.8-0.8,3.6-1.3,5.3c-0.4,1.5-0.7,2.4-1.4,3.6c-0.7,1.3-1.6,2.4-2.4,3.6c-1.2,2-1.6,3.4-2.3,5.6c1.5-0.2,2.5,0.4,4.1,0.2
	l-0.1-0.1c-1.7-2.7-5-1.5-3.3,1.2L148.1,189.4z"/>
<path fill="#D9EFFD" d="M149.3,218.8c0.4-2.3,1-4.6,2.1-6.7c2.7-5.2,9.2-9,14.6-6.6c2.6,1.1,4.5,3.4,5.9,5.9
	c3.9,7,4.3,15.4,3.6,23.3c-0.4,4.7-1.2,9.3-2.7,13.8c-2.1,6.5-5.7,12.4-9.2,18.3c-0.4,0.6-0.7,1.2-1.3,1.6s-1.3,0.4-2,0.5
	c-3,0.3-5.9,0.5-8.9,0.8c-0.6,0.1-1.3,0.1-2,0.2"/>
<path d="M151.7,219.5c0.9-5.4,3.7-11,9.6-12.1c5.8-1,9.1,5.6,10.4,10.1c1.9,6.3,1.7,13.1,0.9,19.6c-0.8,7-3,13.6-6.3,19.8
	c-0.9,1.7-1.9,3.5-2.9,5.2c-0.5,0.8-0.9,1.6-1.4,2.4c-0.3,0.5-0.7,1.5-1.1,1.8c-0.5,0.3-1.7,0.2-2.2,0.3c-1.2,0.1-2.3,0.2-3.5,0.3
	c-2,0.2-3.9,0.4-5.9,0.5c-1.3,0.1-2.5,1.1-2.5,2.5c0,1.3,1.8,2.2,3.4,2.3c2-0.2,3-0.2,5-0.3c2.2-0.2,4.5-0.2,6.6-0.6
	c2-0.4,3.1-2,4.1-3.6c1-1.7,2-3.4,3-5.1c4.1-7.2,7.2-14.7,8.4-23c1.1-7.6,1.5-15.7-0.8-23.2c-2-6.6-6.6-14.2-14.4-13.9
	c-3.8,0.1-7.3,2-10,4.6c-3,3-4.6,7.1-5.3,11.2c-0.2,1.3,0.4,2.7,1.7,3.1C149.8,221.5,151.4,220.8,151.7,219.5L151.7,219.5z"/>
<path fill="#D9EFFD" d="M150.3,218.8c-0.4-2.3-1-4.6-2.1-6.7c-2.7-5.2-9.2-9-14.6-6.6c-2.6,1.1-4.5,3.4-5.9,5.9
	c-3.9,7-4.3,15.4-3.6,23.3c0.4,4.7,1.2,9.3,2.7,13.8c2.1,6.5,5.7,12.4,9.2,18.3c0.4,0.6,0.7,1.2,1.3,1.6s1.3,0.4,2,0.5
	c3,0.3,5.9,0.5,8.9,0.8c0.6,0.1,1.3,0.1,2,0.2"/>
<path d="M148.1,186.9L148,187c1.5,0.2,3,0.4,4.6,0.6c-1.1-3.4-2.7-6.3-4.6-9.2c-1.6-2.5-2.2-5.3-2.9-8.3c-0.9-4-1.2-7.7-1.4-11.8
	c-0.1-2.5-0.3-5.1-0.4-7.6c-0.1-2.4-0.5-4.8-0.3-7.2c0.2-2.3,1.8-4.1,3.1-5.8c1.8-2.4,3.6-4.7,5.5-7.1c-1.3-0.2-2.6-0.3-3.9-0.5
	c0.1,0.3,0.3,0.6,0.4,0.8c1.5,2.9,5.8,0.3,4.3-2.5c-0.1-0.3-0.3-0.6-0.4-0.8c-0.7-1.3-3-1.7-3.9-0.5c-1.7,2.2-3.3,4.3-5,6.5
	c-1.5,1.9-3.2,3.8-4.2,6.1c-1,2.4-1,4.9-0.8,7.4c0.1,2.6,0.3,5.2,0.4,7.8c0.3,4.6,0.3,9.2,1.2,13.8c0.7,3.5,1.4,7.3,3,10.5
	c0.7,1.3,1.6,2.6,2.4,3.8c1.2,1.9,2.1,3.8,2.7,5.9c0.7,2.1,3.4,2.4,4.6,0.6l0.1-0.1C154.2,186.8,149.9,184.3,148.1,186.9
	L148.1,186.9z"/>
<path d="M152.7,218.1c-1.2-6.9-5.4-13.7-12.6-15.4c-3.4-0.8-6.9-0.2-9.7,1.8c-3.1,2.3-5,5.6-6.4,9.1c-2.9,7.1-2.9,15-2.1,22.5
	c0.4,4.1,1.1,8.2,2.4,12.2c1.2,3.9,2.9,7.7,4.9,11.3c1.1,2,2.2,4,3.4,6c1,1.7,2,3.9,3.7,5c2,1.2,5,1,7.2,1.2
	c2.3,0.2,4.1,0.2,6.4,0.4c1.3,0.1,3-1,3-2.3c0-1.4-1.1-2.4-2.5-2.5c-3.6-0.3-7.3-0.5-10.9-1c-1.2-0.1-1.5-1.4-2.1-2.4
	c-0.9-1.6-1.9-3.1-2.8-4.7c-3.5-6.2-6.1-12.6-7.3-19.6c-1.1-6.4-1.5-13.3-0.1-19.7c1-4.7,3.7-12.3,9.4-12.7c2.7-0.2,5.4,1.3,7.3,3.2
	c2.4,2.4,3.4,5.7,4,9c0.2,1.3,1.9,2.1,3.1,1.7C152.3,220.8,152.9,219.5,152.7,218.1L152.7,218.1z"/>
</svg>
